<?xml version="1.0" standalone="no"?>
<!DOCTYPE svg PUBLIC "-//W3C//DTD SVG 20010904//EN" "http://www.w3.org/TR/2001/REC-SVG-20010904/DTD/svg10.dtd">
<svg xmlns="http://www.w3.org/2000/svg" version="1.0" width="2560.000000pt" height="1707.000000pt" viewBox="0 0 2560.000000 1707.000000" preserveAspectRatio="xMidYMid meet">
<metadata>
Created by potrace 1.16, written by Peter Selinger 2001-2019
<meta name="Producer" content="Online-Convert"/></metadata>
<g transform="translate(0.000000,1707.000000) scale(0.100000,-0.100000)" fill="#000000" stroke="none">
<path d="M0 8535 l0 -8535 12800 0 12800 0 0 8535 0 8535 -12800 0 -12800 0 0 -8535z m7844 7287 c-4 -12 -15 -24 -25 -27 -15 -5 -19 -15 -18 -43 1 -26 3 -30 6 -12 8 48 11 51 38 26 25 -23 35 -43 15 -31 -5 3 -10 -2 -10 -11 0 -14 3 -15 12 -6 17 17 31 15 24 -3 -3 -8 -1 -15 4 -15 6 0 10 5 10 10 0 6 7 10 15 10 8 0 15 -5 15 -11 0 -6 7 -9 15 -5 8 3 15 1 15 -3 0 -5 9 -7 20 -4 11 3 27 0 35 -7 12 -10 15 -9 15 5 0 10 3 15 7 11 4 -3 13 4 20 16 l12 23 1 -27 c0 -14 -6 -28 -12 -31 -8 -2 -7 -3 2 -3 9 1 19 17 24 39 9 36 26 51 26 22 0 -8 6 -12 13 -9 10 4 13 -5 12 -33 0 -21 5 -44 12 -51 20 -21 16 -34 -7 -22 -11 6 -20 15 -20 20 0 6 -8 10 -17 10 -13 0 -11 -5 10 -22 l27 -22 -31 -13 c-45 -19 -68 -16 -79 10 -7 18 -9 18 -9 4 -1 -10 -5 -16 -10 -12 -5 3 -13 0 -17 -6 -4 -8 -9 -7 -15 2 -6 10 -9 11 -9 2 0 -7 -9 -13 -19 -13 -32 0 -30 -23 3 -40 29 -14 32 -14 38 2 10 25 23 22 42 -7 17 -26 17 -28 -8 -19 -8 3 -12 12 -9 20 3 8 0 14 -6 14 -6 0 -11 -6 -11 -12 0 -15 20 -48 20 -34 0 5 6 3 14 -3 11 -10 16 -8 21 9 5 16 12 20 28 16 12 -3 29 -6 37 -6 13 0 13 -2 1 -9 -9 -6 -22 -6 -32 0 -12 6 -19 4 -23 -7 -11 -29 -116 -68 -193 -71 l-72 -2 -5 52 c-11 113 -16 328 -7 323 5 -3 20 3 32 13 28 23 30 22 23 -7z m-367 -899 c-15 -217 -38 -510 -41 -525 -3 -13 26 -27 153 -69 86 -28 172 -60 191 -69 19 -10 128 -48 241 -84 l206 -66 6 -145 c5 -149 4 -146 52 -212 8 -10 -1 -24 -34 -54 l-44 -41 6 -64 c3 -41 0 -77 -9 -101 -7 -21 -13 -54 -14 -73 0 -32 4 -37 43 -55 52 -25 70 -64 43 -94 -9 -10 -13 -22 -8 -25 8 -5 14 -70 27 -287 1 -15 10 -44 20 -65 13 -28 15 -42 7 -54 -6 -10 -10 -47 -10 -83 0 -36 -3 -71 -8 -78 -4 -7 -8 -52 -8 -101 -1 -62 -5 -91 -14 -97 -17 -10 -254 -22 -319 -16 -26 3 -140 12 -253 20 -834 62 -1392 105 -1407 110 -8 3 -13 22 -13 47 0 24 -7 90 -15 148 -14 101 -51 475 -95 945 -11 121 -27 288 -35 370 -16 167 -19 235 -8 235 4 0 125 -38 268 -84 316 -102 349 -111 372 -101 10 5 21 9 25 9 3 1 10 4 14 9 12 12 34 8 31 -5 -1 -7 3 -12 8 -11 6 0 19 3 30 5 11 1 20 -3 21 -9 1 -7 2 -17 3 -23 0 -5 6 -10 12 -10 6 0 9 6 6 13 -4 10 4 14 24 14 16 0 29 -4 29 -9 0 -5 8 -17 17 -26 12 -12 18 -13 21 -4 2 6 8 12 13 12 4 0 6 -7 3 -15 -5 -11 0 -13 24 -6 16 5 35 5 43 1 16 -10 52 7 44 21 -4 5 -1 9 5 9 7 0 9 -8 5 -20 -4 -12 -2 -20 5 -20 6 0 9 4 6 8 -3 5 4 16 15 25 21 19 25 37 7 37 -6 0 -9 2 -6 5 12 12 38 -8 33 -25 -9 -27 14 -35 31 -11 8 12 22 21 30 21 23 0 42 23 35 42 -4 12 -11 14 -20 9 -8 -5 -10 -14 -5 -22 6 -11 3 -10 -10 1 -17 14 -17 15 3 24 12 5 21 13 21 19 0 5 7 7 15 3 9 -3 15 0 15 9 0 7 -8 14 -17 14 -45 -1 -58 8 -61 39 -2 18 1 32 7 32 6 0 11 -9 11 -20 0 -11 4 -20 10 -20 5 0 15 9 22 20 7 11 18 20 25 20 7 0 13 5 13 10 0 7 -6 7 -19 0 -11 -5 -22 -6 -25 -1 -3 4 6 13 21 20 14 6 23 14 20 18 -4 3 -14 0 -23 -8 -16 -13 -17 -12 -11 11 7 29 -16 66 -34 54 -8 -4 -10 -3 -5 4 12 19 33 14 39 -10 4 -12 9 -19 13 -15 4 4 13 -1 21 -11 12 -15 12 -15 7 0 -3 10 2 20 15 28 12 6 21 8 21 4 0 -4 2 -5 5 -2 3 3 1 17 -4 32 -11 29 -1 35 19 11 7 -9 15 -13 18 -10 3 3 -5 14 -18 25 -13 11 -21 23 -18 26 3 3 13 -3 22 -12 9 -9 20 -13 24 -9 4 4 -3 15 -16 25 -14 11 -20 24 -16 34 6 15 7 15 19 0 11 -15 13 -13 18 17 7 39 15 123 21 224 8 122 19 225 24 225 2 0 2 -39 -1 -87z m-6648 -976 c0 -474 -4 -868 -8 -876 -7 -11 -11 190 -11 604 0 55 3 131 6 169 4 38 3 71 -2 75 -6 3 -7 64 -3 146 4 77 3 149 -1 160 -4 11 -4 47 1 80 10 80 11 185 2 185 -7 0 -5 63 6 298 1 12 3 22 5 22 3 0 5 -388 5 -863z m10113 -1251 c17 -35 22 -58 16 -64 -18 -18 8 -50 37 -44 14 2 28 8 31 13 3 5 12 9 19 9 19 0 19 -115 0 -133 -25 -24 -65 -57 -70 -57 -2 0 -3 6 -1 13 3 6 7 25 11 41 l6 30 -21 -25 c-13 -15 -20 -18 -17 -8 4 12 1 15 -12 12 -13 -3 -22 5 -32 31 -18 43 -13 116 7 116 8 0 14 7 14 15 0 8 5 15 12 15 6 0 4 7 -5 18 -10 10 -17 24 -17 31 0 6 -7 14 -15 17 -18 7 -20 24 -2 24 7 0 24 -24 39 -54z m-4317 -546 c88 -5 230 -14 315 -20 85 -5 241 -15 345 -20 105 -6 224 -15 265 -20 41 -5 161 -14 265 -20 105 -6 257 -15 338 -20 82 -6 157 -10 168 -10 12 0 21 -10 27 -32 11 -41 1 -63 -36 -76 l-28 -10 9 -88 c5 -49 13 -93 17 -98 5 -5 5 -16 0 -26 -5 -10 -14 -37 -19 -61 -9 -38 -7 -48 12 -76 26 -38 53 -40 56 -3 0 14 5 41 10 60 8 29 9 24 4 -25 -3 -33 -13 -92 -23 -131 -10 -40 -22 -93 -25 -118 -7 -43 -33 -75 -48 -59 -12 11 -27 -48 -27 -102 0 -30 5 -57 11 -60 5 -4 8 -19 5 -33 -4 -16 0 -39 9 -56 8 -15 15 -47 14 -70 0 -31 -2 -36 -8 -21 -5 11 -7 23 -4 28 2 4 1 13 -4 20 -12 19 -23 -57 -24 -163 0 -148 0 -150 15 -150 26 0 31 -42 7 -61 -16 -13 -21 -28 -21 -67 0 -32 -5 -54 -15 -62 -17 -14 -20 -72 -5 -100 5 -10 10 -41 11 -69 1 -27 6 -48 10 -45 4 2 1 -9 -7 -25 -11 -21 -20 -28 -34 -24 -11 3 -20 9 -20 14 0 5 -7 9 -15 9 -8 0 -15 5 -15 11 0 5 -5 7 -12 3 -6 -4 -9 -3 -6 2 8 13 -9 54 -22 54 -6 0 -8 -4 -5 -10 3 -5 1 -10 -5 -10 -6 0 -8 -5 -3 -12 4 -7 -5 -5 -20 5 -15 10 -32 15 -36 12 -13 -7 -24 50 -16 76 5 13 3 19 -3 15 -5 -3 -17 11 -27 32 -30 66 -40 82 -51 82 -14 0 -26 28 -18 41 3 5 -2 12 -10 15 -9 3 -13 10 -10 15 5 9 -41 100 -56 109 -19 12 -70 137 -70 172 0 29 -10 51 -45 98 -25 32 -61 72 -79 87 -19 15 -45 51 -60 80 -64 127 -193 280 -300 352 -26 19 -78 56 -113 83 -91 68 -206 124 -319 153 -110 28 -141 31 -169 11 -31 -21 -73 -28 -97 -15 -11 6 -36 13 -54 14 -18 2 -42 6 -52 9 -11 4 -54 -7 -98 -24 -43 -16 -79 -30 -80 -30 -5 0 -15 461 -10 469 4 7 34 9 79 6 40 -2 144 -9 232 -15z m1884 -1940 c22 -19 23 -21 7 -45 -9 -14 -12 -25 -7 -25 5 0 12 9 16 20 5 16 9 18 25 8 11 -7 17 -14 15 -16 -2 -2 20 -27 49 -56 29 -28 56 -64 60 -79 5 -22 4 -27 -6 -21 -10 5 -11 4 0 -7 17 -19 15 -32 -5 -25 -9 4 -5 -5 11 -21 20 -20 27 -35 24 -55 -3 -15 -1 -25 4 -22 4 3 8 0 8 -5 0 -22 30 -10 36 14 3 14 10 25 14 25 4 0 8 -11 8 -25 0 -14 -6 -25 -13 -25 -6 0 -20 -9 -30 -20 -10 -11 -31 -20 -47 -20 -15 0 -28 -5 -28 -12 0 -6 -9 -3 -20 7 -19 17 -20 17 -20 1 0 -9 5 -14 10 -11 6 3 10 1 10 -4 0 -20 -27 -11 -46 14 -10 14 -24 25 -31 25 -6 0 -20 14 -30 30 -9 17 -22 30 -28 30 -5 0 -2 5 8 11 9 5 17 17 17 25 0 14 -2 14 -16 0 -24 -25 -27 -19 -6 12 33 47 37 56 21 47 -11 -6 -12 -5 -1 6 17 18 15 45 -4 74 -9 14 -14 31 -11 39 3 7 -3 28 -14 45 -19 31 -26 81 -11 81 4 -1 18 -10 31 -20z m1061 -65 c0 -12 -24 -55 -32 -55 -13 0 -9 -28 5 -33 7 -3 4 -6 -7 -6 -15 -1 -16 -4 -6 -16 16 -19 3 -37 -21 -30 -14 5 -17 2 -13 -8 3 -8 -5 -21 -19 -30 -55 -36 -142 -120 -142 -137 -1 -25 -69 -85 -73 -65 -2 8 -16 18 -30 22 -15 3 -30 11 -34 17 -5 8 -8 7 -8 -1 0 -7 -4 -13 -10 -13 -17 0 -11 29 10 50 11 11 16 20 10 20 -5 0 -10 8 -10 17 0 28 -34 92 -52 98 -9 3 -20 15 -24 27 -6 20 -7 20 -30 -6 -27 -28 -61 -35 -61 -12 0 11 5 13 19 5 14 -7 18 -6 18 5 0 24 46 49 75 42 14 -4 25 -12 25 -19 0 -8 4 -7 11 3 8 11 9 8 4 -13 -4 -19 -2 -26 5 -22 5 3 13 -1 16 -10 5 -13 9 -14 15 -4 6 11 9 10 14 -4 6 -14 9 -15 22 -2 17 17 37 20 27 4 -4 -8 -1 -8 14 0 12 6 25 11 29 10 21 -3 32 2 27 14 -2 7 4 13 15 14 29 2 105 49 126 77 12 16 25 22 39 19 17 -4 18 -3 6 6 -13 9 -12 12 5 25 20 15 35 20 35 11z m-717 -126 c38 -23 71 -39 74 -36 4 4 6 13 12 47 1 3 5 -1 10 -9 6 -9 2 -25 -10 -46 l-19 -32 47 -2 c58 -2 71 -11 15 -11 -58 0 -97 -35 -111 -101 -16 -74 6 -143 55 -176 25 -16 26 -16 51 13 l25 29 -22 -33 c-15 -22 -27 -31 -38 -28 -10 3 -24 1 -32 -4 -13 -8 -12 -10 3 -10 9 0 17 -4 17 -10 0 -16 -15 -12 -44 11 -20 16 -24 25 -16 33 8 8 13 7 19 -3 5 -8 11 -9 15 -3 3 5 -3 17 -13 26 -17 16 -19 15 -25 -6 l-6 -23 -20 25 c-22 27 -23 61 -1 68 9 3 11 -1 7 -15 -4 -13 -2 -20 8 -20 9 0 13 3 11 7 -9 15 -22 120 -14 120 4 0 10 18 14 39 4 27 13 41 26 44 10 3 19 10 19 16 0 19 -35 -4 -68 -44 -33 -41 -43 -36 -59 32 -9 34 -8 43 4 47 8 3 12 10 8 15 -3 5 -1 12 5 16 5 3 10 -1 10 -9 0 -23 25 -19 27 4 2 18 -8 25 -30 21 -5 -1 -6 3 -2 9 3 5 -1 10 -9 10 -8 0 -20 9 -26 20 -6 11 -17 20 -24 20 -8 0 -17 7 -20 16 -5 13 1 12 26 -5 18 -12 64 -40 101 -62z m580 -251 c15 -11 37 -18 47 -15 15 4 20 0 20 -16 0 -20 0 -20 23 1 28 27 37 28 37 5 0 -14 2 -15 9 -5 5 9 17 11 34 6 21 -5 27 -2 27 10 0 9 5 16 10 16 16 0 12 -38 -5 -47 -13 -7 -13 -12 0 -36 7 -15 10 -28 4 -28 -5 -1 -15 -2 -21 -3 -7 -1 -12 -9 -12 -18 1 -12 -4 -15 -20 -12 -11 3 -31 6 -44 8 -32 5 -40 16 -12 16 41 0 4 25 -43 29 -5 1 -5 6 -2 11 3 6 -1 10 -10 10 -12 0 -15 5 -11 18 6 16 5 16 -8 -1 -13 -16 -14 -16 -20 9 -5 17 -12 24 -21 20 -8 -3 -17 0 -21 6 -4 7 -3 8 4 4 7 -4 12 -2 12 4 0 6 -11 16 -25 22 -14 6 -25 15 -25 20 0 10 31 -5 73 -34z m-213 -3 c0 -8 5 -15 11 -15 8 0 8 -4 0 -14 -14 -17 -4 -46 16 -46 12 0 13 3 4 14 -10 12 -8 17 8 25 26 15 31 14 25 -3 -3 -8 -11 -14 -17 -12 -7 1 -2 -2 11 -8 12 -5 22 -16 22 -23 0 -7 5 -13 10 -13 16 0 12 22 -6 35 -13 9 -14 16 -6 31 10 17 11 17 12 2 0 -12 8 -18 23 -18 16 0 18 -3 8 -9 -11 -7 -11 -10 0 -17 8 -5 16 -9 19 -9 3 0 13 -7 21 -15 15 -13 15 -19 -1 -65 -26 -72 -50 -116 -61 -110 -5 4 -6 0 -4 -7 3 -8 -26 -44 -68 -85 -91 -89 -184 -222 -249 -360 -27 -58 -52 -103 -55 -100 -3 3 1 19 9 34 12 25 12 31 1 42 -20 18 -7 27 14 10 16 -13 17 -12 4 4 -10 13 -10 17 -1 17 7 0 10 7 6 16 -5 12 -2 15 11 10 10 -4 14 -4 11 0 -4 4 -1 16 7 28 8 11 15 31 15 45 0 13 3 21 7 18 11 -12 33 15 33 40 0 16 4 22 12 17 8 -5 9 -2 5 9 -4 10 0 20 8 25 13 7 12 13 -5 47 -16 31 -20 35 -20 16 0 -12 5 -31 10 -42 8 -15 7 -19 -5 -19 -8 0 -15 -4 -15 -9 0 -5 -8 -7 -19 -4 -10 3 -22 0 -25 -6 -4 -6 -1 -11 7 -11 14 0 27 -20 27 -41 0 -25 -30 -4 -44 32 -15 38 -15 42 1 70 10 16 21 29 25 29 4 0 7 3 7 8 -3 20 2 32 12 26 8 -4 8 0 0 15 -7 11 -14 21 -17 21 -3 0 -2 -4 1 -10 3 -5 1 -18 -4 -27 -6 -10 -11 -14 -11 -9 0 5 -7 3 -15 -4 -8 -7 -12 -16 -9 -21 3 -5 -12 -29 -34 -54 -25 -28 -38 -53 -37 -67 1 -13 0 -15 -2 -5 -7 29 -24 19 -20 -12 6 -34 1 -42 -19 -34 -10 3 -11 10 -4 22 6 12 5 18 -3 18 -7 0 -14 -11 -15 -24 -1 -12 3 -23 8 -23 6 0 10 -9 10 -20 0 -28 -14 -25 -28 5 -6 14 -16 25 -21 25 -6 0 -8 7 -4 16 5 13 8 13 15 2 8 -10 9 -10 5 2 -2 8 -9 14 -15 13 -5 -1 -15 11 -22 27 l-12 30 -34 -47 c-18 -25 -31 -50 -29 -54 3 -4 -3 -10 -12 -14 -16 -5 -15 -8 7 -25 16 -12 27 -15 31 -8 8 13 -1 48 -12 48 -5 0 1 15 13 33 13 17 24 34 26 37 7 10 32 -35 28 -47 -3 -7 1 -18 7 -25 22 -22 29 -51 15 -60 -10 -6 -10 -8 -1 -8 7 0 10 -7 7 -15 -4 -8 1 -17 10 -21 20 -8 21 -20 2 -27 -10 -4 -13 -1 -9 9 3 7 0 14 -6 14 -6 0 -11 8 -11 18 0 10 -6 24 -12 31 -10 11 -10 14 0 18 16 6 15 20 -2 26 -8 3 -13 -1 -12 -11 0 -9 -6 -17 -14 -17 -8 0 -20 -6 -26 -13 -8 -11 -19 -8 -57 18 -42 28 -53 50 -26 50 18 0 63 53 89 105 14 28 33 62 42 76 10 15 34 57 54 95 20 38 52 89 72 114 35 42 49 58 136 154 46 51 60 39 17 -15 -36 -44 -37 -61 -3 -29 12 12 22 18 22 14 0 -3 6 -1 14 5 7 6 20 9 29 5 12 -4 14 -1 10 18 -4 13 -11 26 -17 30 -7 5 -7 8 2 8 7 0 17 -10 22 -22 7 -20 9 -20 9 -4 1 16 3 17 18 5 15 -13 15 -12 3 11 -11 21 -11 23 1 13 11 -9 14 -7 15 12 1 18 -2 22 -15 18 -14 -4 -14 -3 -1 6 21 15 30 14 30 -4z m771 -165 c5 0 9 5 9 10 0 6 5 10 10 10 6 0 10 -7 10 -15 0 -8 6 -15 13 -16 6 0 2 -5 -10 -11 -14 -7 -25 -24 -29 -43 -3 -18 -17 -42 -30 -54 -13 -11 -24 -32 -24 -45 0 -35 -23 -50 -38 -25 -7 11 -10 24 -7 29 3 5 1 11 -5 15 -5 3 -10 19 -10 34 0 15 -9 37 -20 49 -21 22 -14 32 7 11 9 -9 14 -5 19 15 3 14 12 26 20 26 8 0 14 5 14 12 0 7 10 22 23 34 l22 21 9 -28 c5 -16 13 -29 17 -29z m2092 -197 c4 -2 7 -40 7 -84 l0 -80 -32 5 c-18 3 -54 8 -81 11 -26 4 -45 11 -42 16 4 5 9 7 13 5 4 -2 8 7 9 21 0 16 -2 21 -7 13 -6 -9 -9 -9 -15 0 -10 17 -14 60 -4 54 11 -7 11 7 0 25 -5 7 -32 16 -60 19 -43 4 -55 1 -67 -14 -9 -11 -13 -14 -10 -7 5 8 -7 10 -41 8 l-48 -4 40 14 c31 11 73 13 185 9 80 -3 148 -8 153 -11z m416 -8 c62 -18 111 -25 180 -26 107 -1 194 -16 109 -18 -41 -1 -46 -3 -41 -21 3 -11 1 -20 -5 -20 -6 0 -12 10 -14 23 -3 20 -8 22 -75 23 -61 2 -73 -1 -74 -15 -1 -9 -3 -28 -5 -43 -2 -19 2 -28 12 -28 8 0 14 -4 14 -10 0 -5 -4 -10 -10 -10 -5 0 -6 -8 -3 -17 6 -16 5 -17 -12 -3 -10 8 -16 10 -12 3 12 -20 -7 -22 -61 -7 -48 14 -70 34 -39 34 6 0 3 8 -8 16 -20 16 -20 16 3 9 26 -7 30 9 7 31 -17 17 -20 44 -5 44 6 0 10 6 10 14 0 18 -35 27 -51 12 -9 -8 -10 -8 -5 2 4 7 1 12 -8 12 -9 0 -16 5 -16 10 0 15 15 12 109 -15z m-912 -62 c0 -10 7 -44 14 -75 7 -32 11 -59 8 -61 -2 -3 -42 -7 -89 -10 -52 -4 -75 -3 -60 3 14 4 21 8 16 9 -5 1 -3 8 4 17 11 13 10 16 -8 21 -12 3 -22 9 -22 14 0 5 -3 8 -7 8 -25 -4 -24 4 2 16 20 9 24 14 13 14 -10 1 -18 5 -18 11 0 5 -6 7 -14 4 -8 -3 -17 -1 -21 5 -8 14 -65 14 -65 0 0 -5 -4 -8 -9 -5 -5 3 -9 -10 -8 -29 1 -37 13 -48 19 -17 2 11 11 0 22 -30 10 -27 24 -48 30 -48 6 0 4 -5 -4 -10 -11 -7 -18 -3 -28 13 l-13 22 6 -22 c8 -29 -14 -41 -33 -17 -13 18 -14 18 -7 -3 4 -14 2 -23 -4 -23 -6 0 -11 4 -11 9 0 5 -7 17 -16 25 -13 14 -13 16 -1 16 11 0 13 7 9 22 -3 12 -7 17 -10 10 -2 -7 -8 -9 -13 -6 -6 3 -2 12 8 20 17 13 17 13 -2 14 -15 0 -17 2 -7 9 11 6 10 10 -4 15 -10 4 -44 -6 -83 -24 -36 -16 -58 -24 -47 -16 10 8 60 33 111 56 73 32 112 42 181 49 146 14 160 13 161 -6z m1324 -9 c35 -14 81 -35 103 -46 21 -11 93 -29 160 -40 105 -17 186 -45 186 -65 0 -2 -15 4 -32 15 -31 18 -52 24 -133 36 -59 8 -150 15 -139 10 15 -7 6 -50 -16 -69 -21 -19 -16 -51 9 -59 9 -3 -2 -3 -23 -1 -52 6 -146 54 -145 74 0 10 2 12 6 4 2 -7 11 -13 19 -13 9 0 12 4 9 10 -4 6 6 7 25 4 25 -5 30 -3 29 12 0 11 -3 14 -6 7 -7 -20 -23 -15 -23 6 0 10 -7 21 -15 25 -23 8 -18 21 9 21 13 0 22 -4 19 -9 -3 -4 3 -5 14 -2 22 7 38 -7 46 -39 4 -16 5 -14 6 7 0 14 7 28 14 31 6 3 -35 27 -93 55 -116 56 -127 66 -29 26z m-495 -98 c104 -24 159 -45 120 -46 -25 0 -106 -48 -107 -63 -1 -7 -2 -18 -3 -26 -1 -18 -43 -47 -78 -55 -22 -5 -25 -3 -21 14 3 11 0 20 -6 20 -6 0 -11 -9 -11 -19 0 -11 -4 -22 -9 -26 -6 -3 -9 3 -9 12 0 10 -3 31 -7 47 -6 22 -5 27 5 21 9 -6 11 5 9 44 -2 28 1 53 6 56 6 3 5 7 -3 11 -6 3 -9 11 -6 16 5 8 -4 9 -27 5 -24 -5 -30 -4 -19 3 23 15 55 12 166 -14z m-1303 -84 c16 -37 29 -71 29 -77 -1 -14 -86 -38 -90 -25 -2 5 -14 10 -27 10 -12 0 -25 7 -29 15 -3 8 -11 15 -17 15 -8 0 -8 -4 1 -15 7 -8 9 -15 4 -15 -5 0 0 -7 10 -15 11 -8 17 -18 13 -21 -25 -25 -59 104 -35 134 13 15 5 15 -62 1 -52 -11 -60 -22 -35 -55 8 -10 14 -26 14 -34 0 -10 -3 -9 -11 5 -6 11 -17 30 -25 43 l-14 23 -29 -21 c-17 -12 -30 -19 -30 -16 0 17 76 53 173 81 62 18 117 34 122 34 6 1 23 -29 38 -67z m527 -13 c0 -6 -5 -19 -10 -30 -8 -15 -7 -19 5 -19 11 0 15 -11 16 -37 1 -21 1 -42 0 -47 -1 -4 4 -14 10 -22 9 -11 8 -14 -1 -14 -7 0 -19 8 -26 18 -11 15 -16 15 -34 4 -13 -8 -33 -11 -50 -7 -23 5 -31 2 -40 -15 -6 -12 -14 -19 -17 -16 -10 9 -35 -24 -29 -39 3 -8 1 -17 -4 -20 -18 -11 -23 43 -6 60 9 9 16 23 16 31 0 8 5 12 10 9 6 -3 10 -1 10 4 0 6 7 11 14 11 20 0 75 59 83 90 3 13 11 30 17 37 14 15 36 17 36 2z m375 -115 c16 -17 25 -22 25 -13 0 8 8 4 20 -11 l20 -25 1 30 1 30 18 -39 c13 -28 16 -46 9 -62 -6 -18 -4 -26 9 -33 14 -8 13 -10 -11 -16 -15 -4 -24 -12 -20 -18 3 -6 1 -7 -5 -3 -6 4 -9 12 -6 20 7 18 -39 61 -81 73 -30 9 -36 9 -32 -1 3 -8 1 -18 -5 -24 -6 -6 -2 -17 13 -31 l23 -21 -26 0 c-30 0 -44 33 -23 54 11 11 10 15 -6 27 -10 7 -19 19 -19 26 0 7 -5 13 -11 13 -6 0 -3 7 6 16 15 15 17 15 30 -2 8 -11 15 -22 15 -26 0 -4 9 -6 19 -5 11 0 17 5 15 9 -3 5 -11 5 -17 1 -8 -5 -8 -2 1 9 7 8 10 23 6 32 -9 24 4 20 31 -10z m-875 6 c13 -9 13 -11 0 -20 -8 -5 -23 -10 -32 -10 -25 0 -32 -18 -14 -36 11 -10 30 -14 57 -12 29 2 43 -1 47 -11 3 -9 -1 -11 -16 -7 -11 4 -23 2 -27 -4 -3 -5 -17 -10 -31 -10 -35 0 -48 -38 -29 -84 16 -38 19 -53 9 -43 -4 3 -23 0 -42 -9 -36 -15 -51 -8 -52 21 0 6 -7 20 -15 32 -13 18 -20 21 -40 13 -20 -7 -25 -6 -25 5 0 8 -4 15 -10 15 -5 0 -9 -16 -7 -35 1 -19 -2 -34 -8 -34 -5 0 -9 9 -8 19 2 13 -2 17 -12 14 -8 -4 -12 -10 -9 -15 3 -5 -4 -9 -15 -9 -17 0 -21 -6 -21 -30 0 -16 5 -30 10 -30 6 0 10 -9 10 -20 0 -11 -5 -20 -11 -20 -6 0 -8 -9 -4 -20 4 -13 2 -20 -7 -20 -7 0 -20 -4 -28 -10 -12 -7 -11 -12 5 -30 11 -12 25 -18 37 -14 21 6 24 -9 5 -25 -8 -6 -33 -8 -63 -5 -46 5 -50 4 -61 -22 -16 -36 -8 -47 33 -42 38 4 42 -2 18 -27 -13 -12 -14 -19 -5 -28 6 -6 11 -19 11 -29 0 -11 7 -18 20 -18 22 0 27 -15 9 -26 -6 -3 -15 0 -20 7 -7 11 -9 10 -9 -5 0 -12 -5 -16 -16 -12 -8 3 -12 2 -9 -4 10 -16 -11 -12 -25 5 -10 12 -10 15 4 15 9 0 16 7 16 17 0 9 -3 13 -7 10 -3 -4 -12 -2 -20 4 -7 6 -13 7 -13 2 0 -5 -16 -9 -35 -10 -19 -1 -35 3 -35 8 0 5 -10 10 -22 10 -17 1 -19 2 -5 6 9 2 17 7 17 10 0 13 -52 53 -61 47 -6 -3 -9 2 -7 12 2 14 -3 19 -19 19 -11 0 -25 3 -29 8 -14 13 -22 7 -29 -22 -3 -16 -13 -32 -21 -35 -8 -3 -14 -10 -14 -17 0 -6 6 -9 13 -6 8 3 20 1 28 -4 10 -6 4 -9 -19 -9 -20 0 -31 -4 -27 -10 3 -5 -1 -10 -9 -10 -9 0 -16 -7 -16 -15 0 -9 6 -12 15 -9 8 4 15 1 15 -5 0 -6 -14 -14 -30 -18 -26 -5 -29 -8 -18 -22 11 -14 11 -14 -4 -3 -21 17 -74 12 -70 -6 1 -8 -2 -11 -7 -8 -5 4 -12 2 -16 -3 -3 -6 -13 -7 -23 -4 -14 5 -15 4 -6 -8 11 -13 15 -49 7 -49 -3 0 -26 18 -52 40 -26 22 -54 40 -62 40 -8 -1 -3 -7 11 -15 14 -8 21 -15 15 -15 -5 -1 -17 -3 -26 -5 -9 -1 -22 1 -29 5 -18 11 27 68 95 119 30 23 103 87 162 143 105 98 185 157 295 216 29 15 91 58 137 94 66 53 104 74 180 102 111 40 102 38 121 26z m-2516 -122 c-13 -62 -31 -147 -40 -188 -10 -41 -19 -95 -20 -120 -2 -25 -5 -62 -8 -83 -2 -20 -1 -35 4 -32 6 4 12 30 26 125 3 24 14 81 24 125 4 22 14 66 21 98 13 61 27 76 25 28 -1 -16 -4 -27 -8 -24 -5 2 -8 -5 -8 -16 0 -14 5 -19 15 -15 9 4 18 -1 21 -11 6 -13 9 -14 16 -3 7 9 8 5 4 -13 -4 -17 0 -29 13 -38 18 -13 19 -33 3 -71 -8 -20 -9 -29 -11 -63 -1 -19 -5 -26 -13 -21 -7 4 -8 3 -4 -5 4 -6 1 -24 -7 -40 -8 -15 -22 -56 -32 -89 -10 -34 -22 -62 -27 -62 -12 0 -10 -58 2 -65 6 -3 10 -15 10 -25 0 -10 5 -20 12 -22 7 -3 -2 -13 -20 -23 -32 -19 -45 -39 -19 -29 8 3 20 -2 27 -11 9 -11 9 -15 1 -15 -20 0 -35 -22 -55 -80 -28 -83 -37 -106 -83 -199 -50 -101 -54 -86 -14 48 16 53 32 124 35 159 5 56 4 62 -9 48 -8 -8 -15 -21 -15 -30 0 -8 -5 -18 -10 -21 -6 -4 -10 -14 -9 -23 1 -10 0 -19 -1 -22 -1 -3 -3 -18 -5 -35 -4 -45 -4 -47 -15 -40 -5 3 -10 4 -10 1 0 -2 -3 -12 -7 -22 -4 -11 -2 -15 4 -11 6 4 8 -3 5 -19 -2 -14 -10 -23 -16 -21 -7 3 -12 -11 -13 -35 -2 -21 -9 -46 -17 -54 -9 -8 -13 -21 -10 -28 6 -16 -17 -66 -40 -85 -8 -7 -13 -18 -10 -25 3 -7 -2 -19 -11 -26 -8 -7 -15 -19 -15 -26 0 -8 -5 -14 -10 -14 -7 0 -7 6 0 20 7 14 7 20 0 20 -5 0 -10 -7 -10 -15 0 -8 -4 -15 -10 -15 -5 0 -7 -8 -3 -17 5 -16 4 -15 -9 1 -9 11 -20 16 -27 12 -7 -5 -31 8 -59 31 -38 31 -54 38 -91 38 -27 0 -46 -5 -49 -13 -2 -6 -8 -10 -13 -6 -5 3 -12 -2 -15 -10 -3 -9 -16 -16 -28 -16 -12 0 -27 -9 -34 -20 -9 -15 -19 -19 -37 -14 -16 4 -25 2 -25 -6 0 -6 -4 -8 -10 -5 -5 3 -10 -4 -10 -16 0 -18 -2 -19 -15 -9 -8 7 -15 9 -16 4 0 -5 -4 0 -9 11 -9 20 -9 20 -9 0 -1 -30 43 -52 119 -59 100 -10 100 -10 95 -64 -9 -115 -17 -188 -21 -207 -2 -11 3 -4 12 15 9 19 16 45 16 58 0 12 5 22 10 22 6 0 8 6 5 13 -2 6 2 18 9 25 12 11 14 8 14 -15 0 -22 2 -25 10 -13 8 13 10 12 10 -2 0 -10 -3 -18 -8 -18 -7 0 -16 -15 -46 -77 -8 -18 -20 -33 -26 -33 -6 0 -10 -6 -9 -12 2 -7 -2 -31 -8 -53 -6 -22 -17 -92 -23 -155 -7 -63 -19 -146 -26 -185 -13 -67 -13 -72 12 -145 15 -41 31 -79 35 -84 14 -16 11 8 -7 50 -19 45 -27 117 -11 107 6 -4 8 2 5 15 -6 22 0 26 35 23 15 -2 20 9 20 44 0 6 7 17 15 25 14 12 15 12 10 0 -20 -54 -19 -57 13 -64 48 -9 66 -7 72 8 4 11 -4 13 -39 9 -24 -2 -44 -3 -44 -1 0 2 20 48 44 103 93 212 155 332 199 386 26 32 48 71 52 92 4 21 10 37 14 37 3 0 6 23 7 51 1 28 5 54 10 58 5 3 10 20 11 36 3 50 7 65 16 65 5 0 7 6 4 14 -3 8 -1 16 4 18 6 2 11 10 12 18 2 12 39 81 86 160 5 8 24 44 42 80 17 36 35 72 40 80 8 15 15 36 18 55 2 6 9 17 16 25 7 8 19 34 27 58 7 23 16 42 20 42 4 0 19 21 34 46 15 25 36 50 48 55 16 7 13 8 -14 4 -19 -2 -42 0 -50 5 -13 8 -12 10 3 10 15 0 16 3 6 21 -6 12 -7 19 -1 15 11 -6 45 40 45 61 0 7 8 13 18 13 12 0 22 11 28 33 5 17 10 26 10 20 1 -16 31 -17 31 -2 0 5 -4 7 -10 4 -12 -7 -13 15 -1 33 6 10 11 9 22 -4 12 -16 12 -17 -1 -10 -9 4 -8 1 3 -7 9 -8 16 -25 16 -38 -1 -16 -3 -18 -6 -7 -2 9 -10 15 -18 12 -10 -4 -7 -12 12 -29 25 -21 27 -27 25 -104 -2 -81 -17 -145 -61 -245 -12 -27 -23 -56 -24 -65 -2 -9 -8 -26 -15 -38 -15 -27 -15 -43 -1 -43 6 0 9 7 6 14 -4 10 -1 13 9 9 9 -3 14 1 14 12 0 9 4 14 8 11 4 -2 14 -1 22 5 11 6 11 9 2 9 -14 0 -14 -1 38 62 18 21 29 42 25 48 -3 5 -2 10 2 10 10 0 48 138 45 158 -2 6 2 12 8 12 6 0 15 10 20 23 7 18 8 16 5 -13 -2 -19 -5 -37 -6 -40 -3 -8 -5 -39 -7 -100 -2 -39 -5 -51 -12 -40 -6 10 -8 3 -3 -22 4 -25 1 -43 -8 -55 -8 -9 -14 -23 -15 -32 -1 -9 -2 -29 -3 -45 -1 -21 -5 -27 -17 -22 -9 3 -12 2 -9 -4 4 -6 4 -29 0 -50 -6 -35 -8 -38 -22 -25 -15 16 -38 11 -27 -6 3 -5 9 -7 14 -4 15 9 18 -21 5 -59 -16 -46 -82 -144 -107 -160 -10 -6 -18 -16 -18 -23 0 -7 -9 -18 -20 -25 -11 -7 -20 -19 -20 -26 0 -7 -7 -15 -15 -18 -8 -4 -12 -10 -9 -15 3 -5 1 -9 -4 -9 -5 0 -12 -8 -16 -17 -7 -23 -36 -69 -75 -124 -34 -47 -39 -69 -15 -69 16 0 81 67 116 119 10 14 18 23 18 19 0 -5 9 1 20 12 12 12 25 18 30 15 6 -4 10 3 10 14 0 12 3 21 8 21 4 0 22 14 41 30 33 29 59 40 46 20 -3 -5 -1 -10 4 -10 19 0 -42 -100 -105 -174 -60 -70 -142 -150 -219 -214 l-40 -33 35 18 c19 10 50 31 69 46 18 16 40 26 48 23 8 -3 11 -1 8 4 -3 6 -2 10 3 10 5 0 14 11 22 24 16 31 47 39 61 18 8 -14 9 -12 6 10 -2 15 0 25 4 22 5 -3 9 0 9 5 0 6 -6 11 -12 11 -9 0 -8 3 2 10 9 6 20 5 29 -3 10 -8 13 -9 8 -1 -4 7 0 27 8 45 14 33 19 27 18 -18 0 -6 6 -9 13 -6 11 4 11 10 -1 38 -11 28 -11 36 0 45 11 9 12 7 9 -7 -3 -10 2 -27 10 -38 15 -20 15 -19 9 3 -6 24 10 63 40 97 10 11 24 27 31 35 21 24 37 60 31 70 -3 5 -1 11 5 15 20 12 10 -51 -12 -75 -24 -26 -33 -60 -16 -60 6 0 4 -7 -3 -16 -12 -14 -19 -71 -19 -143 0 -14 5 -28 12 -32 8 -5 2 -10 -16 -15 -19 -5 -31 -2 -37 7 -7 11 -9 10 -9 -3 0 -10 -7 -18 -15 -18 -22 0 -15 -17 23 -55 17 -18 32 -40 32 -49 0 -9 8 -16 20 -16 10 0 24 -10 31 -21 9 -17 13 -19 20 -8 6 11 9 10 15 -4 3 -9 12 -17 20 -17 17 0 35 -66 28 -105 -3 -17 -13 -38 -23 -48 -15 -16 -22 -17 -38 -7 -16 10 -26 9 -59 -8 -21 -11 -58 -23 -81 -27 -24 -4 -43 -10 -43 -15 0 -4 19 -4 42 0 43 8 71 -6 45 -22 -7 -4 -13 -3 -15 2 -2 6 -8 10 -13 10 -6 0 -8 -4 -4 -9 3 -5 1 -12 -4 -16 -6 -3 -7 -13 -4 -21 4 -10 -2 -17 -16 -21 -15 -4 -19 -9 -11 -18 7 -8 3 -15 -14 -25 -14 -7 -22 -18 -20 -24 3 -7 -7 -25 -22 -41 -21 -22 -28 -25 -35 -14 -7 12 -9 11 -9 -2 0 -8 -7 -24 -16 -35 -8 -10 -12 -13 -8 -5 5 9 3 12 -4 7 -7 -4 -12 -14 -12 -22 0 -20 -20 -17 -21 4 0 11 -5 8 -13 -11 -7 -15 -16 -24 -21 -20 -4 5 -5 0 -2 -10 9 -24 -1 -41 -16 -28 -17 13 -50 -13 -52 -41 -1 -15 -8 -22 -19 -20 -11 2 -16 -4 -16 -19 0 -15 -5 -19 -15 -15 -10 4 -15 -1 -15 -15 0 -13 4 -18 12 -13 7 4 8 3 4 -4 -4 -7 -16 -12 -28 -12 -17 0 -18 -2 -8 -15 10 -12 10 -15 0 -15 -7 0 -10 -7 -6 -15 7 -19 -3 -19 -28 0 -11 8 -14 15 -8 15 20 0 13 18 -10 26 -32 10 -48 -19 -43 -75 18 -207 18 -241 0 -286 -17 -45 -39 -65 -71 -65 -29 0 -125 50 -163 85 -49 46 -111 86 -121 80 -4 -3 -11 2 -14 11 -3 8 -10 13 -15 9 -5 -3 -12 -1 -16 5 -4 6 -10 8 -14 6 -10 -6 -85 20 -119 41 -15 9 -60 46 -100 81 -71 63 -85 90 -37 72 21 -8 25 -7 25 10 0 13 -10 24 -25 30 -14 5 -25 14 -25 20 0 5 -9 10 -20 10 -11 0 -20 5 -20 11 0 13 -62 8 -72 -5 -4 -6 -2 -18 3 -27 5 -11 5 -27 0 -42 -7 -19 -15 -23 -33 -20 -16 3 -29 -2 -39 -14 -13 -16 -12 -17 3 -5 11 9 18 10 23 2 9 -15 31 -12 49 5 13 14 16 13 26 -5 6 -11 17 -20 25 -20 7 0 17 -5 21 -12 5 -8 -2 -9 -27 -5 l-34 7 33 -28 c18 -15 32 -33 32 -39 0 -7 8 -13 19 -13 24 0 96 -58 94 -77 0 -8 5 -12 13 -9 8 3 13 2 12 -2 -3 -15 14 -40 25 -36 7 2 24 -7 39 -21 29 -26 44 -33 32 -13 -4 7 -3 8 5 4 6 -4 9 -11 6 -16 -3 -5 27 -27 67 -50 108 -61 176 -105 202 -129 12 -11 30 -21 39 -21 29 0 19 -18 -15 -29 -67 -21 -104 -23 -141 -8 -19 9 -38 13 -41 9 -3 -3 -6 -1 -6 4 0 6 -18 9 -40 8 -25 -1 -40 3 -40 10 0 7 -3 7 -8 1 -20 -27 -82 -14 -126 26 -11 11 -27 19 -36 19 -9 0 -25 7 -36 16 -19 15 -19 16 1 9 41 -14 55 -14 55 1 0 12 -17 18 -41 16 -10 -1 -134 121 -131 130 1 5 -11 33 -28 63 -31 55 -38 81 -20 70 6 -3 10 3 10 14 0 28 -14 26 -30 -4 -14 -25 -55 -35 -62 -14 -2 6 -20 12 -39 13 -20 2 -41 6 -48 10 -6 4 -11 2 -11 -3 0 -19 -18 -12 -25 9 -8 24 -18 25 -40 4 -13 -13 -21 -14 -38 -6 -20 10 -20 11 -3 11 20 1 20 1 0 16 -19 15 -19 15 1 9 17 -5 18 -4 3 5 -22 15 -48 4 -41 -16 5 -12 3 -14 -8 -7 -15 9 -20 11 -46 13 -9 0 -14 4 -10 7 6 6 -16 34 -28 34 -3 0 -5 -6 -4 -12 1 -7 -2 -24 -8 -38 -6 -14 -16 -45 -23 -68 -19 -73 -19 -42 1 48 30 140 50 297 52 412 l2 109 67 -7 c53 -5 69 -4 72 7 2 8 10 102 17 209 9 126 16 183 20 160 6 -32 8 -28 13 20 0 8 -3 18 -7 21 -10 7 12 391 22 402 4 4 77 3 161 -2 85 -6 156 -9 157 -7 2 2 -10 71 -26 153 -45 224 -48 259 -24 286 12 12 35 46 53 75 17 28 36 52 42 52 5 0 6 9 3 21 -5 15 -4 19 4 15 9 -6 16 7 9 17 -2 2 3 11 10 20 8 9 11 20 8 25 -3 6 1 15 8 21 8 7 17 34 21 62 4 27 11 49 16 49 5 0 9 7 9 16 0 10 6 14 14 11 10 -4 12 3 10 26 -2 16 -6 33 -9 35 -3 3 3 14 12 25 13 15 15 21 5 24 -6 3 -10 9 -7 13 3 5 13 6 23 3 16 -6 16 -6 0 11 -20 20 -23 32 -8 41 6 3 10 15 10 26 0 11 4 18 9 15 5 -3 8 9 7 27 -1 26 3 32 18 30 13 -1 15 2 7 10 -15 15 -14 27 4 27 21 0 19 26 -2 40 -17 11 -17 11 0 6 14 -5 16 -1 11 19 -5 20 -2 25 12 25 16 0 17 2 4 10 -12 8 -10 10 10 11 22 0 23 1 6 8 -18 7 -17 9 12 27 18 10 30 24 28 31 -3 8 2 13 14 13 11 0 20 6 21 13 0 10 2 10 6 0 2 -7 12 -13 22 -13 9 0 23 6 31 13 12 10 12 9 1 -5 -7 -10 -20 -18 -28 -18 -8 0 -11 -4 -8 -10 3 -5 1 -10 -4 -10 -6 0 -11 6 -12 13 0 8 -2 8 -6 -2 -5 -11 -7 -11 -14 0 -7 11 -9 10 -9 -3 0 -11 8 -18 19 -18 10 0 21 -7 25 -15 3 -8 12 -15 20 -15 7 0 16 7 20 15 3 8 10 15 16 15 5 0 2 -9 -7 -20 -21 -25 -51 -26 -69 -2 -12 15 -12 15 -7 -5 5 -21 27 -29 64 -25 3 1 6 -9 5 -21 -1 -18 -6 -21 -28 -19 -22 3 -27 0 -22 -12 7 -18 30 -21 39 -6 4 6 11 8 16 5 5 -4 9 8 9 26 0 26 2 30 15 19 8 -6 20 -10 27 -7 7 3 4 6 -7 7 -20 1 -20 1 -1 15 11 8 15 15 8 15 -7 0 -5 11 7 31 11 18 17 37 14 45 -3 9 2 11 18 7 13 -4 20 -2 16 3 -5 10 12 14 66 16 19 0 26 5 23 14 -3 8 -1 15 4 15 6 1 16 2 23 3 6 1 11 7 10 14 -2 7 4 12 13 12 8 0 12 -4 9 -10 -9 -14 29 -12 44 3 10 10 11 8 5 -8 -7 -18 -6 -19 12 -5 22 17 61 40 69 40 3 0 1 -9 -5 -21 -7 -11 -9 -23 -6 -27 3 -3 6 0 6 7 0 7 4 10 9 7 10 -7 33 18 25 27 -3 3 3 3 15 0 12 -3 21 -12 21 -19 0 -8 6 -14 13 -14 7 -1 5 -6 -5 -14 -25 -18 -22 -29 4 -20 28 9 68 49 68 69 0 8 4 15 9 15 5 0 -2 -51 -15 -112z m-3394 88 c0 -8 17 -21 38 -29 20 -8 46 -24 57 -34 11 -11 27 -17 34 -15 10 3 12 0 7 -13 -5 -13 -2 -16 12 -13 12 3 24 -2 31 -14 6 -10 16 -16 21 -13 5 3 20 -6 34 -20 14 -14 26 -22 26 -17 0 4 -5 13 -12 20 -6 6 -8 15 -4 19 4 4 11 1 17 -7 8 -13 11 -12 24 4 12 16 15 17 20 4 4 -9 18 -14 41 -13 20 0 38 -3 40 -7 3 -4 15 -13 26 -19 18 -10 20 -9 15 5 -8 21 2 20 20 -1 8 -10 12 -13 9 -8 -2 6 4 12 15 12 10 1 19 -5 19 -13 0 -8 5 -14 11 -14 6 0 9 6 6 13 -3 8 0 13 6 13 14 0 57 -43 55 -54 0 -4 9 -12 21 -18 12 -6 25 -15 29 -19 4 -5 0 -5 -8 0 -8 4 10 -16 40 -44 30 -28 60 -51 67 -51 14 0 18 -16 6 -23 -5 -2 -3 -3 4 -1 6 1 19 -4 30 -11 10 -8 27 -14 38 -14 11 0 14 3 8 6 -27 10 -11 23 27 23 29 0 40 -4 40 -15 0 -17 65 -21 90 -5 10 6 11 10 3 10 -7 0 -13 8 -13 18 0 10 -6 24 -12 31 -11 10 -9 12 7 9 13 -2 23 5 30 20 5 12 14 22 19 22 5 0 15 8 22 18 13 16 15 16 34 -7 11 -13 20 -20 20 -16 0 5 8 1 18 -8 10 -10 22 -14 26 -10 4 4 4 -1 0 -12 -4 -11 -4 -17 0 -13 8 7 82 -28 92 -43 3 -5 15 -9 27 -10 21 0 21 -1 2 -8 -11 -5 -26 -6 -32 -4 -7 3 -14 -3 -15 -13 -2 -27 -4 -37 -13 -57 -4 -10 -5 -20 -2 -24 8 -7 -22 -37 -41 -39 -15 -3 -45 20 -37 28 3 3 -2 5 -10 5 -8 0 -15 -6 -15 -13 0 -6 -7 -14 -15 -18 -13 -5 -13 -8 2 -25 9 -11 21 -18 27 -15 6 3 3 -1 -6 -9 -27 -22 -23 -57 6 -57 26 0 30 -20 8 -42 -7 -7 -12 -18 -12 -25 0 -7 -7 -13 -15 -13 -19 0 -21 -56 -2 -63 6 -3 -1 -6 -16 -6 -17 -1 -26 -5 -22 -12 4 -6 -2 -13 -14 -16 -11 -3 -18 -9 -15 -14 3 -5 -1 -15 -8 -22 -14 -13 -60 -18 -52 -5 9 13 -13 9 -25 -5 -6 -8 -7 -17 -3 -21 4 -4 -5 -5 -21 -1 -17 5 -27 3 -27 -4 0 -6 17 -11 38 -11 20 0 32 -4 25 -8 -6 -4 -55 -7 -109 -7 l-99 0 -7 40 c-4 22 -11 69 -17 105 l-9 65 4 -80 c3 -65 2 -76 -7 -57 -7 12 -16 22 -20 22 -5 0 -17 15 -26 33 -31 57 -118 167 -121 152 -2 -8 6 -23 17 -34 12 -12 21 -25 21 -31 0 -5 14 -23 31 -40 18 -16 28 -30 23 -30 -5 0 -4 -4 2 -8 16 -10 73 -132 62 -132 -5 0 -6 -4 -3 -10 3 -5 1 -10 -4 -10 -6 0 -11 4 -11 8 0 5 -24 10 -54 11 -42 1 -55 -2 -60 -15 -5 -14 -4 -15 8 -4 13 10 19 9 31 -4 9 -9 21 -16 26 -16 6 0 8 -4 5 -9 -3 -5 2 -17 12 -28 9 -10 14 -14 10 -9 -18 23 -6 28 16 7 14 -13 22 -29 19 -37 -3 -10 0 -12 10 -9 8 4 17 -1 21 -10 5 -13 10 -14 27 -4 12 6 32 9 45 6 13 -2 25 1 27 7 2 7 36 11 89 11 l86 0 23 44 c13 25 45 68 71 96 45 50 51 53 142 75 172 41 315 8 433 -100 l66 -60 76 -1 c42 -1 105 -5 141 -9 l65 -7 -65 -2 c-36 -1 -100 -2 -142 -2 -61 -1 -78 -4 -78 -15 0 -8 -5 -14 -11 -14 -5 0 -8 -4 -5 -8 2 -4 1 -14 -5 -22 -8 -13 -9 -13 -9 0 0 12 -2 12 -12 1 -11 -11 -10 -14 0 -18 10 -4 9 -9 -4 -24 -9 -10 -21 -16 -27 -12 -6 4 -8 0 -4 -11 24 -61 13 -97 -10 -38 l-12 27 6 -30 c3 -16 15 -38 27 -48 11 -10 15 -16 9 -12 -7 3 -13 1 -13 -6 0 -8 -6 -5 -13 5 -12 16 -13 13 -9 -19 3 -25 1 -36 -6 -31 -7 4 -10 -1 -7 -13 5 -28 -24 -36 -34 -9 -6 17 -3 27 13 40 12 10 15 17 9 18 -7 0 -13 5 -13 11 0 5 4 8 9 5 5 -4 7 3 4 14 -3 11 -10 23 -16 27 -6 4 -7 1 -2 -7 5 -9 2 -10 -14 -5 -18 5 -21 2 -21 -19 0 -17 -6 -26 -16 -26 -10 0 -15 -8 -13 -22 2 -13 -3 -34 -10 -47 -9 -16 -9 -21 -1 -16 8 5 10 -8 8 -44 -3 -57 -20 -72 -29 -26 -3 18 -5 6 -5 -33 0 -42 -4 -66 -12 -71 -20 -12 -43 -62 -37 -81 3 -9 -4 -26 -15 -38 -12 -12 -16 -22 -11 -22 6 0 -3 -30 -19 -66 -41 -91 -72 -214 -58 -231 7 -9 7 -13 -1 -13 -6 0 -11 -8 -11 -17 0 -16 -2 -16 -11 -3 -8 11 -12 12 -16 2 -2 -6 -10 -9 -16 -5 -20 12 -47 14 -47 2 0 -5 -5 -7 -11 -4 -5 4 -29 9 -52 12 -23 2 -47 9 -55 15 -7 6 -15 8 -19 5 -3 -4 -17 2 -30 13 -13 10 -31 16 -39 13 -9 -3 -14 2 -14 16 0 14 -5 19 -15 15 -9 -4 -15 0 -15 10 0 8 -9 20 -20 26 -14 8 -20 8 -20 0 0 -7 -6 -8 -19 0 -14 7 -29 6 -53 -4 -47 -19 -178 -10 -178 13 0 3 -14 7 -32 8 -17 1 -34 6 -37 11 -9 12 -93 54 -86 42 3 -5 -15 1 -40 14 -25 14 -53 22 -61 19 -7 -3 -14 0 -14 6 0 6 -7 8 -16 4 -9 -3 -20 0 -25 8 -11 18 -11 32 0 24 5 -3 16 4 24 15 7 11 17 17 20 13 4 -3 7 1 7 9 0 9 6 19 13 21 9 4 8 8 -3 16 -11 8 -11 11 -2 11 9 0 10 5 3 17 -7 13 -5 23 6 35 16 17 31 108 19 108 -14 0 -115 -88 -109 -94 4 -3 -3 -6 -15 -6 -12 0 -22 -5 -22 -11 0 -5 6 -7 13 -3 8 5 8 2 -2 -9 -7 -9 -18 -17 -24 -17 -6 0 -21 -11 -33 -25 l-22 -26 2 26 c0 13 6 24 13 22 6 -1 25 15 42 37 17 21 31 36 31 32 0 -4 9 -2 20 4 29 15 25 29 -7 25 -16 -2 -23 -2 -17 1 6 3 10 18 8 35 -2 19 0 28 7 23 7 -4 9 2 7 17 -1 12 -10 25 -18 27 -12 4 -13 3 -2 -10 10 -13 9 -17 -10 -22 -21 -6 -22 -7 -6 -20 10 -7 15 -16 12 -19 -8 -7 -34 17 -34 32 0 5 -9 13 -20 16 -11 3 -20 13 -20 21 0 8 -4 14 -10 14 -5 0 -10 8 -10 18 0 14 -2 15 -10 2 -8 -12 -10 -9 -10 12 0 20 6 27 23 30 17 3 15 5 -11 9 -32 6 -33 5 -27 -25 5 -23 4 -27 -4 -16 -6 8 -11 25 -11 37 0 17 -4 21 -17 17 -15 -5 -15 -4 -3 4 8 6 18 8 22 6 11 -7 10 38 -2 56 -8 12 -10 10 -8 -9 2 -13 -2 -26 -8 -28 -7 -2 -10 6 -9 21 4 32 14 48 28 43 6 -2 53 18 105 45 52 26 98 45 103 42 5 -3 9 2 9 10 0 9 11 18 25 22 14 3 25 10 25 15 0 5 7 9 15 9 8 0 15 4 15 9 0 5 9 11 20 14 11 3 20 12 20 21 0 9 5 16 11 16 8 0 8 5 -1 15 -7 8 -9 15 -6 15 4 0 4 5 0 11 -4 8 -9 7 -15 -2 -8 -12 -11 -11 -19 1 -8 13 -14 8 -12 -11 1 -6 -17 -9 -55 -10 -13 -1 -23 -4 -23 -8 0 -4 -9 -7 -20 -7 -13 0 -19 5 -16 13 3 7 1 13 -5 13 -6 0 -7 6 -3 13 5 8 2 7 -9 -2 -10 -8 -20 -11 -24 -7 -3 3 -1 6 5 6 6 0 9 7 6 15 -5 11 -10 13 -19 5 -10 -8 -15 -4 -20 20 -4 17 -12 30 -18 29 -25 -3 -34 1 -34 16 0 9 6 14 13 11 8 -3 10 2 6 16 -4 15 -7 17 -13 6 -7 -11 -11 -10 -20 2 -9 13 -10 13 -6 -2 4 -12 0 -16 -12 -15 -17 1 -17 3 -5 22 8 12 11 26 7 30 -5 5 0 3 10 -5 10 -7 17 -9 16 -4 -4 23 2 26 16 8 12 -15 16 -16 24 -5 5 8 14 10 22 5 12 -6 12 -5 1 8 -8 9 -20 14 -28 11 -8 -3 -14 0 -14 6 0 6 -7 11 -15 11 -8 0 -15 7 -15 15 0 9 -6 12 -17 9 -15 -5 -15 -3 1 10 25 20 35 20 42 1 4 -8 11 -12 16 -9 6 4 5 10 -3 15 -11 6 -11 11 -1 21 9 9 12 9 12 -1 0 -7 6 -11 13 -8 6 2 20 0 30 -5 11 -6 17 -5 17 2 0 6 7 4 16 -4 18 -19 40 -21 50 -4 4 6 3 8 -3 5 -6 -4 -14 4 -17 18 -4 14 -11 25 -16 25 -6 0 -10 7 -10 16 0 10 -6 14 -14 11 -11 -4 -13 -1 -9 10 4 11 2 14 -5 9 -7 -4 -12 -2 -12 4 0 7 -14 25 -31 41 -18 16 -29 32 -26 35 3 4 -13 22 -36 40 -23 19 -47 39 -54 44 -7 6 -15 10 -18 10 -10 0 -35 28 -35 38 0 5 7 15 15 22 16 13 21 35 6 26 -5 -3 -14 1 -22 10 -10 12 -9 18 4 31 9 9 20 13 24 9 5 -5 2 -11 -4 -13 -18 -7 -16 -20 3 -20 12 0 14 7 10 30 -6 30 -6 30 14 12 20 -18 21 -18 14 1 -6 16 -3 15 20 -6 15 -13 22 -26 17 -28 -12 -4 -15 -22 -3 -22 26 1 32 17 19 50 -8 18 -16 29 -19 24 -3 -5 -4 -4 -2 2 3 17 -32 58 -40 45 -10 -16 -26 -14 -26 4 0 9 6 12 18 8 13 -5 14 -3 5 7 -6 7 -16 9 -22 6 -15 -10 -14 -43 2 -49 8 -4 0 -16 -22 -36 -18 -17 -35 -31 -37 -31 -10 0 -1 13 23 36 18 16 21 22 9 18 -16 -6 -17 -3 -11 17 3 13 3 19 -2 13 -14 -18 -45 -25 -59 -13 -14 11 -10 29 6 29 5 0 7 -7 4 -15 -9 -22 6 -18 27 7 23 26 24 22 -6 53 -17 16 -21 25 -12 25 8 0 20 -7 27 -15 7 -8 16 -12 21 -9 5 2 -6 19 -24 36 -18 17 -24 25 -14 18 9 -7 17 -9 17 -5 0 14 160 -159 255 -275 105 -130 160 -192 149 -170 -5 8 -12 20 -17 25 -4 6 -45 60 -89 120 -45 61 -90 117 -99 125 -9 8 -64 67 -122 131 -59 64 -129 131 -157 149 -27 18 -50 34 -50 36 0 2 9 4 20 4 11 0 20 -6 20 -14z m5418 -5 c-2 -4 16 -39 40 -76 24 -37 39 -71 35 -76 -4 -4 -43 -26 -87 -50 -64 -34 -80 -39 -88 -28 -8 11 -9 10 -4 -3 7 -22 -29 -45 -40 -26 -33 56 -36 63 -22 46 8 -10 18 -15 21 -11 4 3 7 -2 7 -13 1 -18 1 -18 11 -1 9 15 5 23 -16 43 -14 13 -31 24 -37 24 -6 0 -8 10 -4 25 4 14 2 25 -3 25 -15 0 -21 -30 -10 -52 6 -11 8 -22 5 -26 -3 -3 -6 1 -6 8 0 9 -3 11 -10 4 -14 -14 0 -56 16 -50 8 3 13 2 13 -2 -4 -27 3 -44 16 -38 8 3 15 4 15 3 0 -1 -35 -38 -78 -80 -45 -44 -79 -71 -79 -63 0 9 3 16 7 16 4 0 23 15 43 33 25 24 33 38 26 48 -4 8 -13 15 -19 15 -5 1 -18 2 -27 3 -16 2 -15 3 2 10 11 5 23 7 28 4 4 -2 7 1 7 6 0 6 -9 11 -20 11 -11 0 -19 3 -19 8 6 36 -26 66 -43 40 -6 -10 -8 -10 -8 0 0 10 -4 10 -19 0 -16 -10 -18 -15 -8 -27 10 -12 9 -13 -1 -7 -7 4 -20 5 -30 1 -14 -5 -14 -7 -2 -16 13 -9 12 -10 -2 -5 -17 5 -35 -9 -21 -17 5 -2 3 -2 -4 -1 -6 2 -16 -3 -22 -10 -8 -9 6 -28 55 -75 36 -35 62 -67 57 -71 -4 -4 -45 -38 -91 -74 l-83 -67 -70 62 c-38 34 -71 60 -73 58 -2 -2 -22 -32 -45 -66 -23 -35 -44 -63 -48 -63 -3 0 3 12 13 28 65 100 88 130 120 152 57 40 126 99 229 194 77 72 98 87 106 75 8 -11 9 -10 7 6 -2 16 20 32 127 87 146 76 136 71 133 59z m2815 -104 c54 -24 61 -36 17 -29 -18 3 -30 0 -30 -7 0 -6 -5 -10 -11 -8 -6 1 -14 -4 -16 -11 -6 -15 54 -12 99 6 15 6 30 7 33 3 2 -5 16 -12 31 -15 27 -7 76 -46 56 -46 -6 0 -14 5 -17 11 -5 7 -15 3 -30 -11 -15 -14 -25 -18 -30 -11 -3 6 -11 11 -17 11 -7 0 -7 -4 0 -13 18 -21 0 -71 -26 -75 -12 -2 -22 -10 -22 -18 0 -8 -8 -14 -17 -14 -15 1 -13 5 10 25 33 29 34 35 3 35 -25 0 -50 -22 -38 -34 4 -4 -6 -6 -22 -4 -22 2 -33 -4 -50 -26 -19 -26 -20 -29 -5 -39 15 -9 15 -15 4 -48 -12 -32 -11 -38 1 -43 19 -7 18 -42 -2 -50 -9 -4 -14 -9 -11 -12 3 -4 -5 -18 -19 -32 -13 -15 -24 -30 -24 -35 0 -4 -11 -20 -25 -35 -14 -15 -25 -32 -25 -39 0 -16 -50 -69 -62 -65 -5 1 -7 -2 -3 -8 3 -5 1 -18 -5 -29 -19 -36 5 -30 30 7 14 20 29 40 33 43 5 3 7 10 5 14 -1 5 7 9 20 10 20 1 22 -2 17 -19 -4 -12 -9 -30 -12 -41 -2 -12 -14 -25 -26 -30 -11 -6 -25 -22 -30 -38 -5 -15 -18 -38 -30 -51 -24 -27 -30 -66 -10 -66 8 0 12 4 9 9 -3 5 5 20 19 32 13 13 25 30 25 37 0 7 11 18 25 24 14 6 25 17 25 25 0 7 9 13 19 13 11 0 23 4 26 10 4 6 -1 7 -12 4 -16 -5 -16 -4 -2 8 9 7 14 19 11 27 -3 8 0 11 6 7 6 -3 13 -2 17 4 4 6 10 8 15 5 4 -3 10 2 14 10 3 8 0 15 -7 16 -7 0 -1 5 13 10 16 7 21 12 12 17 -8 6 -6 12 7 24 17 14 20 14 25 2 5 -12 8 -13 20 -2 8 7 10 17 6 23 -5 6 -4 17 1 25 8 11 12 12 16 3 8 -20 22 -15 16 5 -6 24 25 52 37 33 6 -10 10 -8 15 8 3 12 11 18 17 15 7 -4 8 -2 4 4 -4 7 -2 12 4 12 6 0 8 10 4 26 -5 19 -4 25 5 20 6 -4 11 -14 11 -22 0 -22 23 -12 36 15 9 17 14 19 20 10 4 -7 3 -14 -4 -17 -15 -5 -46 -62 -34 -62 5 0 28 18 51 40 l43 39 -28 25 c-29 25 -29 25 -46 6 -9 -11 -22 -20 -30 -20 -8 0 -9 3 -2 8 6 4 13 15 17 24 6 17 22 19 45 4 7 -4 12 -4 11 1 -4 24 3 43 16 43 9 0 12 6 9 15 -4 8 -1 15 5 15 6 0 11 -4 11 -10 0 -5 5 -10 10 -10 6 0 10 9 10 20 0 13 5 18 15 14 11 -5 13 -2 8 12 -5 13 4 10 33 -12 21 -17 65 -50 97 -74 32 -23 60 -47 63 -52 5 -7 -472 -488 -596 -602 -14 -12 -51 -50 -82 -84 -32 -34 -62 -62 -68 -62 -5 0 -10 -7 -10 -15 0 -8 -5 -15 -10 -15 -6 0 -9 -10 -7 -22 2 -13 2 -17 0 -10 -3 6 -9 12 -14 12 -6 0 -7 -4 -4 -10 3 -5 2 -10 -2 -10 -13 0 -63 -50 -63 -63 0 -7 4 -6 10 3 5 8 10 11 10 5 -1 -18 -32 -51 -37 -38 -5 13 -33 6 -33 -9 0 -5 4 -7 9 -3 5 3 12 1 16 -5 3 -5 1 -10 -4 -10 -6 0 -11 -7 -11 -16 0 -8 -4 -13 -9 -10 -5 3 -11 -1 -15 -9 -3 -8 -1 -15 5 -15 6 0 7 -5 4 -10 -4 -7 -24 4 -50 27 -108 96 -180 150 -245 184 -39 20 -78 43 -88 52 -9 9 -40 21 -67 28 -43 10 -94 26 -170 54 -11 5 -33 7 -50 6 -26 -1 -28 0 -12 10 10 6 27 9 38 6 10 -3 19 -1 19 4 0 5 15 9 33 10 35 0 83 17 57 19 -74 8 -120 7 -149 0 -39 -11 -57 -1 -64 33 -3 18 -5 17 -6 -6 -1 -25 -3 -27 -22 -17 -11 7 -32 9 -45 6 -22 -6 -24 -4 -18 19 5 22 3 25 -22 26 -24 0 -21 3 16 12 l45 12 1 60 c0 33 -1 50 -3 37 -3 -16 -9 -22 -20 -18 -8 3 -33 6 -56 6 -43 1 -38 9 12 25 16 5 21 4 17 -4 -4 -6 0 -11 9 -11 9 0 15 7 13 17 -3 14 10 16 92 18 52 1 112 6 134 10 37 8 38 7 27 -14 -13 -24 -23 -29 -15 -6 4 10 0 15 -11 15 -12 0 -16 -6 -12 -20 3 -10 -2 -25 -10 -31 -8 -7 -19 -22 -25 -33 -10 -20 -9 -19 11 2 27 28 29 28 24 -3 -7 -34 -31 -54 -44 -34 -7 11 -9 9 -9 -9 0 -13 4 -21 9 -18 5 4 4 -5 -2 -18 -7 -13 -15 -22 -19 -20 -5 3 -8 1 -8 -4 0 -5 17 -9 38 -10 l38 -2 17 73 c32 131 39 147 61 148 12 1 41 3 66 4 73 5 154 22 158 34 2 6 11 11 21 11 23 0 58 26 48 36 -4 4 -21 0 -36 -9 -16 -9 -39 -17 -50 -17 -12 0 -21 -4 -21 -9 0 -16 -23 -19 -90 -11 -44 5 -53 8 -27 9 20 0 37 6 37 11 0 6 16 10 35 10 19 0 67 11 107 24 40 13 124 30 186 36 61 7 112 16 112 20 0 4 -33 10 -72 13 -80 6 -97 9 -116 20 -7 5 -14 3 -18 -6 -5 -14 -76 -33 -99 -27 -5 1 -44 4 -85 6 -92 5 -136 16 -131 35 2 8 6 25 8 39 4 25 4 25 -12 5 -17 -20 -17 -19 -13 8 6 30 -7 38 -15 8 -3 -12 -23 -25 -56 -36 -61 -20 -102 -14 -94 13 6 23 -25 26 -46 5 -15 -15 -33 -13 -39 5 -2 7 6 12 17 12 12 0 21 4 21 9 0 5 17 12 38 16 l37 8 -35 8 c-19 4 -44 19 -55 33 -26 33 -33 26 -41 -36 -6 -44 -9 -48 -33 -47 -14 0 -20 3 -14 6 7 2 16 3 20 1 5 -1 13 57 19 130 6 73 15 136 19 140 3 4 52 7 106 8 56 0 94 -3 87 -7 -7 -5 -29 -9 -50 -9 -31 0 -38 -4 -46 -29 -6 -16 -6 -34 -1 -42 7 -12 9 -12 10 1 1 8 1 23 0 32 -2 19 12 24 96 32 45 4 51 3 46 -11 -5 -13 -2 -15 23 -8 16 5 41 9 56 8 15 0 25 4 21 10 -3 5 6 7 25 2 18 -4 33 -2 37 5 5 8 11 8 21 -1 21 -17 7 -29 -37 -29 -39 0 -155 -34 -174 -51 -13 -13 12 -11 75 5 30 8 109 16 175 19 66 3 137 11 157 17 26 8 44 8 57 0 16 -8 23 -5 39 14 26 33 72 45 73 20 0 -14 2 -15 6 -5 3 8 20 28 37 44 l31 29 -60 -5 c-37 -4 -52 -3 -39 2 36 16 158 25 150 12 -4 -6 -15 -11 -25 -11 -18 0 -38 -16 -40 -32 -3 -20 -14 -37 -20 -34 -4 3 -7 -3 -8 -12 -3 -34 -9 -51 -27 -71 -10 -11 -16 -26 -14 -33 3 -7 -4 -22 -14 -33 -11 -11 -22 -32 -25 -47 -3 -16 -10 -28 -15 -28 -5 0 -6 -4 -3 -10 7 -12 -10 -47 -38 -77 l-20 -23 26 0 c27 0 50 27 45 52 -2 7 4 12 14 10 11 -2 15 3 13 15 -1 10 3 27 10 38 6 11 11 29 9 39 -1 10 10 32 27 48 16 16 29 36 29 44 0 8 7 14 16 14 8 0 13 3 10 8 -2 4 2 18 10 32 l15 25 -7 -24 c-4 -16 -3 -21 5 -17 6 4 11 21 11 38 0 22 4 29 14 25 11 -5 14 1 11 23 -2 21 0 27 10 24 13 -5 70 44 62 53 -3 2 -12 -3 -20 -12 -10 -9 -18 -11 -22 -5 -3 5 -27 11 -53 11 -120 3 -96 16 38 20 142 5 190 15 190 41 0 9 -3 9 -12 0 -7 -7 -20 -12 -30 -12 -17 0 -17 3 4 40 l23 40 -35 31 -35 31 45 -27 c25 -15 66 -36 93 -48z m-5812 6 c13 -16 12 -17 -4 -4 -9 8 -20 11 -23 8 -9 -8 15 -47 29 -47 7 0 6 4 -3 10 -13 8 -12 10 3 10 21 0 80 -30 86 -44 2 -4 7 -2 12 5 6 10 9 10 9 2 0 -9 7 -10 24 -3 13 5 27 6 30 3 3 -3 12 -1 19 5 14 12 27 7 27 -10 0 -5 -4 -6 -10 -3 -5 3 -10 2 -10 -3 0 -6 7 -13 16 -16 8 -3 12 -11 9 -16 -5 -8 -11 -7 -20 0 -12 10 -13 6 -5 -18 6 -24 5 -30 -5 -26 -9 4 -17 -11 -26 -50 -7 -31 -14 -54 -17 -51 -3 2 -12 -9 -21 -26 -20 -37 -32 -39 -47 -10 -19 36 -25 36 -12 0 6 -19 16 -37 21 -40 5 -4 5 -9 -2 -13 -6 -4 -11 -3 -11 2 0 9 -36 25 -52 23 -3 0 -9 6 -12 15 -3 8 -2 12 4 9 6 -3 10 -2 10 4 0 5 -6 12 -12 14 -10 4 -10 8 1 15 11 8 10 12 -5 21 -11 6 -13 11 -6 11 22 0 13 30 -13 40 -29 11 -35 42 -7 34 9 -2 1 4 -19 13 -35 17 -41 38 -16 54 5 4 6 12 2 18 -5 9 -11 9 -23 -1 -15 -11 -15 -11 -5 3 7 9 9 20 5 24 -4 5 -2 5 4 2 6 -4 20 0 30 8 18 13 18 14 -3 8 -13 -3 -23 -1 -23 6 0 5 6 8 14 5 7 -3 16 2 19 10 8 21 21 20 38 -1z m5069 -48 c0 -9 -7 -18 -15 -21 -8 -4 -15 -15 -15 -26 0 -15 -5 -18 -16 -14 -9 4 -23 1 -31 -6 -11 -9 -17 -9 -24 3 -8 11 -9 10 -7 -6 2 -16 -6 -22 -42 -30 -25 -7 -61 -18 -80 -25 -19 -8 -39 -13 -45 -11 -5 2 -47 3 -93 3 l-83 -1 4 32 3 32 121 0 c93 0 119 -3 116 -13 -3 -8 0 -10 10 -6 9 3 14 11 11 18 -3 8 17 16 62 25 36 6 77 19 91 28 24 16 24 17 7 24 -17 7 -17 8 4 8 13 1 22 -5 22 -14z m-636 -131 c25 -4 46 -10 46 -14 0 -5 -10 -6 -22 -3 -20 4 -21 3 -7 -9 9 -7 14 -23 12 -37 -3 -20 -1 -22 12 -11 12 10 15 10 15 -3 0 -9 -4 -18 -9 -21 -4 -3 -7 -18 -5 -33 4 -24 3 -25 -5 -8 -7 17 -9 14 -12 -19 -2 -22 -10 -41 -17 -44 -7 -2 -11 2 -10 8 2 7 -3 15 -9 17 -7 3 -13 0 -13 -6 0 -6 -5 -11 -12 -11 -6 0 -3 10 8 22 19 21 19 21 -3 16 -21 -6 -22 -3 -16 20 3 15 12 31 20 35 19 11 7 26 -16 20 -13 -3 -21 1 -24 14 -3 13 -5 10 -6 -8 -1 -33 -40 -84 -53 -71 -5 5 -13 31 -17 58 l-9 49 -1 -52 c-1 -41 -5 -53 -17 -53 -9 0 -12 5 -8 12 4 6 7 31 5 54 -2 37 1 43 21 46 13 2 39 0 58 -4 38 -8 49 -3 32 14 -6 6 -29 11 -51 11 -23 0 -41 4 -41 8 0 10 87 12 154 3z m2280 -351 l87 -87 -29 -15 c-15 -9 -44 -28 -64 -43 -35 -28 -50 -35 -45 -20 1 4 -2 7 -8 7 -5 0 -9 -6 -9 -12 3 -24 -11 -13 -85 61 -64 64 -73 77 -61 90 7 9 19 16 27 16 8 0 11 5 8 10 -3 6 1 10 9 10 14 0 20 -11 18 -31 -1 -3 6 -6 14 -6 18 0 18 7 -1 33 -14 21 -11 34 8 34 5 0 7 -7 3 -15 -3 -8 -1 -15 3 -15 18 0 21 -33 5 -51 -16 -18 -16 -19 -1 -19 10 0 17 6 18 13 0 6 4 2 9 -10 6 -14 18 -23 32 -24 13 0 18 -3 12 -5 -7 -3 -10 -14 -7 -24 3 -11 9 -17 14 -14 5 3 9 0 9 -5 0 -6 5 -11 12 -11 9 0 9 3 0 12 -17 17 -15 28 4 28 13 0 14 3 5 14 -9 11 -6 14 16 14 15 0 33 -8 40 -17 11 -15 12 -15 13 0 0 20 -136 145 -156 143 -15 -2 -19 8 -7 19 12 13 19 7 107 -80z m-4483 -31 c-10 -19 10 -40 69 -77 9 -5 29 -20 44 -32 l28 -22 -68 -78 c-37 -43 -73 -79 -80 -81 -6 -2 -33 11 -60 27 -37 24 -43 31 -26 31 13 0 25 -7 29 -16 4 -12 8 -13 14 -3 6 10 12 9 28 -5 23 -21 27 -15 11 14 -6 11 -16 17 -25 14 -9 -4 -22 -1 -30 6 -8 6 -19 9 -25 5 -7 -4 -14 2 -17 14 -4 17 -8 19 -19 10 -8 -6 -11 -15 -8 -20 3 -5 -2 -6 -11 -3 -13 5 -13 9 -3 23 6 9 2 6 -11 -5 -19 -18 -21 -25 -12 -43 7 -11 20 -21 30 -21 11 0 22 -7 25 -16 4 -9 13 -14 21 -10 8 3 14 2 14 -2 -3 -17 2 -35 7 -29 9 8 44 -11 44 -24 0 -19 -82 -149 -94 -149 -8 0 -8 3 0 8 19 13 23 40 9 52 -12 10 -13 8 -10 -9 2 -11 -1 -23 -6 -27 -5 -3 -9 -2 -8 3 1 4 0 19 -1 33 -2 17 -4 20 -7 8 -2 -9 -10 -15 -18 -12 -8 3 -11 12 -8 20 4 10 0 12 -11 8 -10 -4 -18 0 -22 10 -3 9 -16 16 -28 16 -20 1 -20 1 3 14 20 11 21 14 7 19 -10 4 -15 3 -11 -3 3 -6 2 -10 -4 -10 -5 0 -20 -20 -34 -44 l-25 -45 21 -14 c12 -7 43 -19 70 -27 26 -7 47 -17 47 -22 0 -6 7 -8 15 -4 23 9 19 -7 -35 -113 -27 -54 -46 -101 -43 -105 14 -13 -19 -4 -108 30 -52 20 -96 37 -97 39 -2 2 22 49 53 105 31 55 86 159 122 230 50 101 81 148 141 215 42 48 86 98 96 111 24 29 30 31 17 6z m4314 -92 c69 -69 77 -82 65 -94 -8 -7 -78 -56 -155 -108 -337 -227 -384 -260 -396 -274 -6 -8 -16 -14 -21 -14 -6 0 -26 -14 -45 -30 -19 -17 -39 -28 -44 -24 -6 3 -17 -3 -25 -15 -8 -12 -22 -21 -30 -21 -8 0 -14 -4 -14 -8 0 -5 -44 -39 -98 -75 -87 -58 -135 -97 -119 -97 6 0 83 45 117 68 21 14 23 14 12 1 -7 -9 -71 -56 -143 -104 l-130 -87 -49 53 c-27 30 -49 56 -49 59 0 3 23 23 50 45 28 22 68 55 89 75 22 19 80 68 129 109 50 41 91 77 91 82 0 4 8 10 18 13 9 4 35 22 57 41 22 19 45 39 50 43 58 45 163 131 176 144 10 9 29 24 43 33 17 11 26 27 27 44 0 20 2 22 7 8 6 -15 18 -8 82 43 41 34 83 71 93 83 10 12 15 16 11 8 -4 -7 7 -3 25 10 17 12 31 26 31 31 0 7 48 37 60 38 3 0 41 -36 85 -80z m-6537 48 c20 -43 23 -66 9 -80 -14 -14 -35 -87 -41 -141 -7 -65 -18 -41 -46 103 -7 36 -15 76 -18 90 -4 22 -3 23 10 12 13 -10 18 -9 28 3 7 8 16 12 21 9 5 -3 9 2 9 10 0 23 15 19 28 -6z m2407 -81 c-15 -23 -14 -25 41 -66 32 -24 68 -47 81 -52 12 -4 23 -13 23 -19 0 -5 18 -19 40 -30 22 -11 40 -18 40 -15 0 3 19 -14 43 -37 24 -24 64 -59 90 -77 25 -19 44 -39 41 -43 -3 -4 4 -8 15 -8 11 0 35 -9 53 -20 22 -13 36 -16 44 -9 8 7 14 7 19 -1 3 -5 0 -10 -7 -10 -7 0 9 -21 36 -46 47 -46 49 -47 113 -46 55 0 62 -2 47 -13 -10 -7 -25 -10 -32 -7 -27 10 -6 -22 29 -46 19 -12 50 -37 70 -55 54 -47 69 -59 69 -52 0 4 7 0 15 -9 8 -8 50 -40 93 -70 42 -31 88 -64 101 -74 l24 -19 -33 -47 c-18 -25 -36 -46 -38 -46 -3 0 -40 22 -82 50 -43 27 -83 51 -91 52 -7 2 -21 11 -31 21 -19 18 -43 24 -34 8 3 -5 -2 -15 -11 -22 -14 -12 -16 -12 -8 1 9 15 15 50 8 50 -11 0 -30 -27 -30 -42 0 -22 25 -32 43 -17 11 9 14 8 14 -4 0 -8 -6 -18 -12 -21 -7 -4 -3 -4 9 -2 15 2 23 -2 26 -16 3 -11 10 -17 16 -13 6 3 11 2 11 -3 0 -6 8 -8 19 -5 23 6 37 -13 16 -21 -8 -3 -15 -11 -15 -18 0 -8 3 -9 8 -3 9 14 62 18 62 5 0 -6 7 -10 16 -10 11 0 14 -6 9 -22 -7 -23 -7 -23 9 -3 15 19 15 18 11 -19 -7 -59 -18 -67 -64 -46 -20 10 -49 22 -64 25 -15 4 -27 11 -27 16 0 5 -7 5 -17 2 -12 -5 -14 -3 -8 7 6 9 4 11 -4 5 -7 -4 -23 -3 -34 3 -51 23 -80 32 -85 27 -8 -7 -7 -8 113 -55 171 -67 166 -64 149 -100 -9 -16 -16 -30 -18 -30 -1 0 -47 17 -101 38 -322 124 -451 173 -735 278 -173 64 -349 127 -390 141 -41 14 -79 29 -84 34 -6 6 80 187 99 208 2 1 14 -4 27 -13 27 -19 62 -22 53 -3 -4 6 2 2 12 -9 24 -28 130 -76 166 -76 15 0 25 -3 22 -8 -7 -12 94 -62 108 -53 6 3 7 1 3 -5 -4 -7 7 -17 30 -27 45 -18 41 -19 47 5 3 10 -1 24 -9 31 -8 6 -14 8 -14 3 0 -5 -7 -1 -15 10 -8 11 -20 16 -30 12 -9 -3 -14 -2 -11 3 8 12 -21 34 -34 26 -9 -6 -15 8 -10 30 1 6 -2 7 -6 2 -4 -4 -16 0 -26 10 -10 9 -18 11 -18 5 0 -6 6 -13 13 -15 9 -4 9 -6 0 -6 -7 -1 -18 11 -25 27 -7 15 -19 28 -26 28 -6 1 -14 3 -17 4 -8 4 -24 7 -41 9 -10 1 -14 7 -10 16 6 18 -5 20 -22 3 -8 -8 -15 -8 -27 2 -8 7 -24 10 -35 7 -11 -3 -20 -1 -20 4 0 5 -9 9 -19 9 -72 0 3 142 189 358 49 57 59 65 35 29z m-1026 -185 c19 -121 26 -286 13 -278 -8 5 -10 23 -7 49 5 39 4 40 -5 12 -6 -16 -8 -40 -5 -52 3 -12 1 -25 -5 -28 -5 -3 -10 -19 -10 -36 0 -18 -5 -29 -14 -29 -8 0 -16 -6 -19 -12 -2 -7 -8 -10 -12 -6 -4 4 0 14 9 23 9 9 16 21 16 26 0 6 -7 3 -16 -5 -18 -19 -31 -21 -17 -3 6 6 16 30 23 52 7 22 16 45 19 50 4 6 7 37 6 70 0 33 5 63 10 67 6 5 5 8 -2 8 -15 0 -18 96 -4 105 6 3 6 18 0 38 -11 40 -11 57 0 37 5 -8 14 -48 20 -88z m5584 -64 c57 -82 77 -112 77 -118 0 -3 -28 -16 -62 -30 -83 -33 -89 -35 -48 -11 19 11 29 20 22 21 -7 0 -10 5 -6 11 5 8 8 8 14 0 5 -8 14 -9 33 -2 27 11 37 31 15 31 -6 0 -8 3 -5 7 9 9 -33 54 -44 47 -5 -3 -6 2 -3 10 7 17 -11 22 -21 6 -9 -15 -25 -12 -25 5 0 9 6 18 14 21 8 3 12 12 10 19 -3 8 -12 11 -20 8 -8 -3 -12 -9 -9 -13 6 -10 -30 -51 -39 -43 -3 3 -6 -1 -6 -10 0 -11 -5 -14 -16 -10 -11 4 -22 -1 -30 -12 -8 -10 -14 -15 -14 -11 0 4 -7 1 -15 -8 -9 -8 -22 -13 -30 -10 -8 4 -15 1 -15 -6 0 -6 5 -8 10 -5 23 14 8 -4 -16 -20 -22 -14 -28 -15 -36 -4 -6 10 -8 7 -6 -11 3 -22 -1 -25 -34 -28 -26 -2 -39 -9 -43 -23 -7 -22 -21 -25 -28 -6 -3 7 -9 2 -15 -13 -9 -22 -11 -22 -12 -5 l-1 20 -8 -20 c-5 -11 -7 -22 -5 -25 1 -3 -7 -7 -18 -7 -31 -3 -78 -24 -78 -35 0 -6 -7 -7 -16 -4 -11 4 -15 2 -11 -8 3 -8 -2 -16 -14 -19 -17 -4 -18 -3 -8 9 8 10 8 14 0 14 -6 0 -13 -11 -17 -25 -6 -26 -20 -33 -26 -14 -3 8 -8 7 -18 -3 -14 -13 -51 -31 -58 -28 -2 1 -12 -8 -21 -19 -10 -11 -20 -18 -23 -16 -9 9 -67 -17 -65 -28 1 -7 -5 -11 -14 -9 -8 1 -25 -7 -36 -17 -11 -11 -23 -17 -26 -14 -3 3 -12 1 -19 -3 -7 -5 -20 -9 -28 -11 -8 -1 -20 -9 -27 -18 -6 -10 -16 -14 -22 -11 -5 3 -17 -1 -26 -10 -9 -9 -18 -14 -22 -11 -3 3 -16 -6 -29 -20 -14 -15 -30 -23 -39 -19 -8 3 -15 1 -15 -5 0 -6 -4 -8 -9 -4 -6 3 -14 -2 -19 -11 -5 -9 -12 -15 -16 -15 -3 1 -20 -6 -36 -14 -16 -8 -32 -16 -35 -16 -2 0 -21 -7 -40 -15 -20 -8 -40 -12 -45 -9 -6 3 -7 -1 -4 -9 4 -11 0 -16 -12 -16 -25 0 -84 -22 -84 -32 0 -4 -7 -8 -15 -8 -18 0 -117 -51 -127 -65 -4 -5 0 -13 9 -16 14 -5 15 -6 1 -11 -9 -4 -21 4 -32 24 -10 16 -16 31 -14 32 5 5 462 250 658 354 47 25 90 48 95 52 6 4 67 38 137 74 71 37 149 80 175 96 26 17 53 30 60 30 8 0 27 10 42 21 16 12 34 19 39 15 5 -3 12 0 15 7 3 8 31 26 64 42 32 16 60 31 63 35 7 9 43 24 53 22 4 -1 7 3 7 9 0 6 7 9 15 5 9 -3 19 3 26 15 6 11 16 18 23 16 7 -3 18 4 25 14 15 25 22 20 74 -53z m-2111 -146 l36 -16 -23 -63 c-15 -42 -19 -64 -11 -67 33 -13 -36 -3 -77 11 -40 14 -48 21 -44 38 29 121 30 125 57 118 14 -3 41 -13 62 -21z m178 -73 c0 -5 -4 -17 -9 -27 -56 -110 -44 -146 15 -44 15 26 28 49 30 51 1 1 13 -5 26 -14 22 -16 22 -17 1 -11 -17 5 -21 3 -19 -11 2 -10 -4 -24 -13 -31 -9 -8 -10 -11 -4 -7 9 4 11 1 7 -10 -4 -9 -9 -13 -12 -11 -3 3 -11 1 -18 -5 -11 -9 -11 -13 1 -25 7 -8 21 -14 30 -14 9 0 13 -4 10 -10 -3 -5 -2 -10 2 -10 5 0 14 9 21 20 7 12 17 18 22 15 4 -3 15 2 23 10 9 8 18 15 20 15 10 0 1 -35 -11 -43 -7 -5 -10 -12 -7 -17 3 -5 1 -11 -4 -14 -5 -4 -13 3 -16 15 -6 17 -9 19 -16 8 -13 -21 -12 -23 21 -47 l29 -22 40 49 c36 47 51 54 51 25 0 -6 -19 -31 -42 -55 -24 -23 -34 -36 -24 -28 15 10 18 11 12 1 -5 -8 -1 -21 10 -33 17 -19 40 -27 30 -10 -3 5 0 14 8 20 18 15 58 23 51 10 -4 -5 -11 -7 -16 -4 -5 4 -9 -1 -9 -11 0 -9 -8 -23 -17 -30 -17 -12 -17 -13 0 -19 9 -4 17 -14 17 -23 0 -11 -14 -2 -42 25 -81 79 -135 119 -230 172 l-95 53 19 40 c11 22 22 38 25 35 2 -3 0 -14 -6 -25 -15 -29 -14 -42 4 -36 8 4 15 12 15 20 0 24 43 82 57 77 7 -3 13 -9 13 -14z m-1157 -131 c21 -33 34 -64 29 -67 -4 -3 -26 -17 -48 -30 -21 -13 -76 -60 -122 -105 -46 -45 -80 -72 -76 -61 4 11 12 23 18 28 7 4 -7 25 -38 54 l-49 47 33 27 c30 26 34 27 56 12 13 -8 29 -11 36 -7 7 4 10 4 6 -1 -5 -5 6 -17 24 -27 31 -19 31 -19 51 1 16 15 18 23 9 34 -7 8 -8 18 -4 22 4 5 2 5 -5 1 -12 -7 -40 31 -35 47 1 5 -2 6 -7 3 -19 -12 -23 16 -5 30 11 7 30 23 44 34 14 10 30 19 35 20 6 0 27 -28 48 -62z m-4741 19 c3 -13 -3 -57 -13 -98 -10 -41 -20 -93 -24 -117 -3 -23 -10 -54 -15 -67 -5 -14 -9 -29 -8 -33 3 -11 -28 -104 -46 -137 -9 -16 -16 -37 -16 -45 0 -27 -56 -80 -84 -80 -20 0 -24 -4 -20 -17 5 -16 4 -16 -6 0 -9 15 -9 21 3 30 8 7 17 32 20 57 6 44 101 252 118 258 5 2 9 9 9 17 0 7 16 52 35 99 35 88 43 126 25 126 -5 0 -7 7 -4 15 9 22 21 18 26 -8z m4448 -18 c55 -15 74 -33 60 -59 -11 -21 -12 -21 -53 19 -22 23 -47 41 -53 41 -7 0 8 -20 34 -45 l47 -45 -30 -24 c-26 -21 -33 -23 -50 -12 -11 7 -27 27 -35 44 -8 17 -22 32 -30 32 -17 1 -71 39 -55 40 6 0 21 -7 34 -16 22 -16 23 -16 12 5 -7 11 -17 22 -24 22 -7 1 4 5 23 9 36 7 58 5 120 -11z m-1663 -145 c66 -23 124 -40 127 -37 3 4 6 1 6 -5 0 -7 8 -12 17 -12 9 0 30 -4 47 -10 17 -5 126 -39 241 -76 116 -36 228 -72 250 -79 22 -7 99 -32 170 -54 117 -38 687 -223 692 -226 1 0 -3 -18 -9 -38 -13 -41 -26 -45 -100 -27 -24 6 -74 17 -113 24 -38 8 -131 28 -205 46 -74 17 -234 53 -355 80 -227 51 -488 112 -750 175 -82 20 -171 41 -197 47 -27 6 -48 16 -48 22 0 6 16 60 37 119 30 88 39 107 52 101 9 -4 71 -26 138 -50z m-2674 -204 c21 -24 21 -24 0 -7 -11 10 -23 15 -26 10 -3 -4 -8 -51 -11 -104 -7 -96 -20 -205 -32 -269 -7 -38 -31 -67 -60 -72 -11 -2 -25 -11 -32 -20 -9 -12 -23 -17 -45 -14 -34 3 -43 17 -31 44 4 9 9 26 11 37 4 26 35 88 48 97 6 4 6 8 1 8 -5 0 -1 9 8 19 12 13 14 20 5 23 -9 3 -7 14 6 42 10 21 18 44 18 52 0 8 4 14 9 14 4 0 8 11 8 24 0 14 5 28 10 31 6 4 8 11 4 16 -3 5 -2 15 3 22 5 7 9 24 8 39 0 15 3 24 7 22 4 -3 8 8 8 25 0 35 28 111 41 111 5 0 10 15 11 33 1 17 4 -11 5 -63 3 -80 7 -98 26 -120z m6197 140 c46 -55 48 -79 8 -97 -16 -7 -28 -17 -28 -22 0 -6 -10 -19 -22 -30 l-21 -21 -21 29 c-12 16 -34 45 -50 65 l-29 37 24 17 c13 9 37 29 54 44 16 15 33 28 37 28 3 0 25 -22 48 -50z m-1818 -104 c17 11 7 -10 -27 -56 -20 -27 -54 -87 -76 -134 l-39 -85 -61 29 c-33 16 -63 31 -66 34 -5 5 16 66 22 66 1 0 28 -11 59 -25 64 -28 66 -29 66 -15 0 5 -11 12 -25 16 -13 3 -29 12 -36 20 -6 8 -15 11 -20 8 -5 -3 -9 0 -9 6 0 6 -4 8 -10 5 -17 -10 -11 16 11 51 21 35 36 46 26 20 -3 -8 1 -17 9 -20 9 -3 13 -10 10 -14 -3 -5 1 -18 9 -29 16 -22 52 -36 60 -23 3 4 -7 11 -20 14 -14 4 -23 11 -20 17 5 7 11 6 20 -1 15 -13 41 -4 50 18 3 9 -3 24 -17 36 -17 17 -19 17 -8 2 11 -14 3 -12 -37 10 -51 29 -52 29 -36 54 9 14 24 35 35 47 l20 21 51 -38 c28 -21 54 -37 59 -34z m-8969 -29 c12 -5 17 -1 17 13 0 11 4 20 9 20 4 0 6 -12 3 -26 -4 -23 -2 -25 17 -19 17 5 20 3 15 -12 -5 -16 -4 -16 8 -2 7 9 18 14 25 12 6 -2 13 4 15 14 3 13 5 11 10 -9 3 -15 1 -25 -3 -22 -5 3 -9 0 -9 -5 0 -6 7 -11 15 -11 8 0 15 9 15 20 0 24 15 27 24 4 3 -8 2 -12 -4 -9 -6 4 -10 -7 -10 -26 0 -34 6 -33 25 3 6 13 18 22 28 20 9 -2 17 3 17 9 0 7 3 9 6 6 9 -9 -16 -38 -26 -32 -10 6 -25 -34 -16 -42 3 -4 6 2 6 12 0 14 6 16 32 11 40 -8 46 -14 28 -27 -11 -7 -6 -8 14 -3 21 5 27 4 22 -5 -8 -12 15 -11 24 1 3 4 12 3 19 -1 11 -7 9 -10 -8 -16 -34 -10 -24 -21 17 -17 26 2 33 0 23 -6 -11 -8 -9 -11 10 -15 23 -4 22 -4 -3 -6 -16 0 -28 -6 -28 -12 0 -5 5 -7 10 -4 6 3 20 3 33 -1 21 -7 21 -7 2 -15 -17 -6 -17 -8 -2 -8 9 -1 17 -7 18 -13 0 -10 2 -10 6 0 2 6 9 10 14 6 5 -3 9 0 9 6 0 6 5 8 10 5 6 -4 8 -11 5 -16 -4 -5 13 -9 36 -9 40 0 41 -1 23 -15 -14 -11 -15 -14 -4 -15 13 0 13 -1 0 -10 -12 -8 -11 -10 8 -10 12 0 22 5 22 10 0 6 5 10 11 10 6 0 9 -7 5 -15 -3 -9 3 -19 14 -25 11 -6 17 -16 14 -24 -3 -7 2 -19 11 -26 13 -11 14 -10 9 4 -5 12 -2 15 10 10 9 -3 13 -10 10 -15 -3 -5 2 -6 10 -3 9 3 16 1 16 -5 0 -6 8 -20 17 -31 13 -14 19 -16 25 -7 5 8 8 7 8 -6 0 -10 12 -22 26 -27 14 -6 22 -14 19 -20 -7 -11 19 -53 27 -44 3 3 11 -9 17 -26 12 -37 4 -50 -46 -67 -30 -11 -32 -10 -42 15 -5 15 -10 22 -10 15 -1 -18 -40 -3 -46 18 -4 10 -12 20 -18 20 -55 5 -77 5 -77 -1 0 -9 -82 -6 -98 4 -7 4 -19 5 -27 2 -10 -3 -12 0 -8 11 5 13 1 15 -20 9 -20 -5 -27 -3 -27 9 0 8 6 15 14 15 19 0 67 -26 78 -42 7 -9 8 -7 3 7 -12 36 -10 39 23 40 23 0 34 -5 38 -18 3 -11 12 -16 20 -13 8 3 14 1 14 -3 0 -5 9 -7 20 -4 16 4 18 8 9 19 -8 10 -16 11 -29 4 -20 -11 -38 4 -19 15 6 5 2 13 -12 23 -17 12 -24 13 -27 3 -3 -8 -8 -7 -19 6 -8 10 -12 12 -8 6 7 -15 8 -15 -33 -4 -20 6 -30 6 -27 0 8 -13 -9 -11 -22 2 -8 8 -18 6 -36 -6 -23 -15 -25 -15 -23 2 1 13 -5 17 -23 15 -32 -3 -49 13 -46 42 2 16 -1 23 -9 20 -7 -3 -11 -18 -9 -37 3 -30 2 -31 -8 -9 -7 12 -16 22 -21 22 -5 0 -7 8 -3 19 4 13 0 20 -15 24 -13 3 -18 1 -13 -5 4 -8 -5 -9 -28 -5 -19 3 -28 3 -21 0 6 -2 12 -9 12 -14 0 -6 -4 -7 -10 -4 -5 3 -10 0 -10 -7 0 -10 -2 -10 -9 1 -5 7 -6 22 -3 34 3 14 1 18 -6 13 -7 -4 -12 -14 -12 -22 0 -8 -15 -21 -32 -29 -29 -12 -34 -12 -40 3 -5 14 -7 13 -7 -5 -1 -16 -6 -20 -21 -16 -15 4 -20 0 -20 -16 0 -11 5 -21 10 -21 6 0 10 -6 10 -12 -1 -8 -8 -4 -18 8 -10 11 -23 19 -31 16 -7 -2 -18 2 -23 9 -8 11 -9 10 -4 -3 3 -10 1 -28 -4 -40 l-9 -23 -2 25 c-1 14 0 30 2 35 1 6 2 21 2 35 l-1 25 11 -22 c10 -23 37 -32 37 -13 0 6 -5 10 -11 10 -6 0 -9 7 -5 15 3 9 0 15 -9 15 -17 0 -20 26 -5 35 6 3 10 -1 10 -10 0 -9 5 -13 10 -10 6 3 10 -1 10 -10 0 -9 5 -13 10 -10 6 3 10 -1 10 -10 0 -9 4 -14 10 -10 5 3 6 13 3 21 -3 9 0 20 8 24 7 5 10 12 5 17 -4 4 -12 0 -17 -10 -10 -16 -11 -16 -27 0 -12 12 -13 18 -4 21 17 5 15 29 -3 29 -8 0 -12 -4 -10 -8 10 -15 -25 -18 -40 -3 -11 11 -12 20 -5 34 6 10 10 27 10 37 0 15 -2 16 -11 3 -8 -12 -9 -11 -5 5 15 59 17 80 7 65 -9 -13 -11 -12 -11 5 -1 18 -2 18 -10 -2 -9 -21 -23 -33 -18 -15 1 4 -6 21 -15 39 -21 40 -21 44 0 36 11 -4 14 -3 9 5 -5 8 -2 10 10 5 13 -5 15 -2 10 15 -6 16 -4 21 7 16 17 -6 41 21 32 36 -3 5 -13 10 -21 10 -8 0 -13 4 -10 9 12 19 46 -1 46 -27 0 -24 0 -25 20 -7 22 20 26 35 10 35 -5 0 -10 -8 -11 -17 0 -12 -2 -13 -6 -5 -3 7 1 19 7 27 11 13 15 13 29 -3 9 -10 24 -21 34 -25z m3201 -39 c9 16 27 16 24 0 -2 -7 6 -13 17 -13 11 0 21 -8 23 -18 2 -11 9 -16 18 -13 7 3 24 -5 36 -18 36 -38 73 -85 73 -95 0 -11 56 -61 68 -61 4 0 7 -8 7 -19 0 -21 23 -45 33 -34 4 3 7 -1 7 -10 0 -10 3 -16 8 -16 19 3 25 -2 12 -11 -12 -8 -11 -10 6 -10 19 0 34 -16 33 -35 0 -10 29 -35 40 -35 6 0 11 -5 11 -10 0 -6 8 -10 18 -8 9 2 16 -3 14 -9 -1 -7 2 -13 8 -13 5 0 6 -8 3 -17 -6 -16 -5 -17 12 -3 17 14 18 13 12 -2 -3 -10 -2 -20 4 -23 5 -4 9 -3 8 2 -3 19 2 34 10 29 5 -3 7 -16 3 -28 -4 -17 -2 -20 11 -15 22 8 77 -40 58 -52 -7 -5 -10 -14 -7 -20 4 -6 2 -11 -4 -11 -6 0 -8 -5 -5 -10 4 -6 3 -9 -2 -8 -4 1 -19 -4 -33 -12 -33 -19 -230 -21 -252 -2 -9 7 -20 12 -24 11 -22 -4 -32 3 -37 22 -4 16 -11 20 -26 16 -12 -3 -19 -1 -15 4 3 5 -4 9 -15 9 -12 0 -21 5 -21 11 0 6 -7 8 -16 5 -10 -4 -23 2 -33 13 -10 11 -29 23 -43 26 -17 5 -25 12 -21 21 3 8 0 14 -5 14 -6 0 -14 9 -17 21 -5 16 -10 18 -21 8 -11 -9 -14 -8 -14 2 0 11 -2 11 -10 -1 -9 -13 -12 -13 -24 3 -18 23 -34 21 -39 -5 -4 -20 -4 -19 -6 5 0 15 2 27 7 27 4 0 7 19 8 43 3 226 17 305 62 358 17 20 17 20 22 -3 4 -16 8 -19 14 -10z m1149 -598 c-3 -11 -9 -18 -13 -15 -4 3 -11 -2 -14 -11 -4 -9 -13 -14 -22 -10 -9 3 -12 2 -9 -4 4 -6 -1 -17 -9 -26 -9 -9 -14 -19 -11 -24 7 -12 -58 -58 -143 -102 -41 -22 -84 -46 -96 -54 -28 -20 -53 -19 -36 1 7 8 16 13 20 10 4 -3 14 3 21 13 12 15 12 15 -1 5 -12 -9 -19 -8 -33 2 -17 12 -14 45 4 45 4 0 6 6 3 14 -3 9 5 22 21 32 29 19 27 31 -2 15 -15 -7 -20 -7 -20 3 0 9 12 12 34 10 29 -2 34 0 29 14 -6 16 -5 16 7 1 10 -14 14 -14 25 -3 6 7 12 20 12 27 0 8 6 15 13 14 33 -1 47 4 47 19 0 8 4 13 8 10 5 -3 20 1 35 9 25 13 47 17 108 22 22 2 26 -1 22 -17z m5491 -891 c2 -13 5 -28 5 -33 1 -4 10 -6 22 -3 13 3 22 0 26 -10 5 -12 7 -12 14 -1 5 7 9 -25 9 -79 0 -100 1 -98 -57 -96 -7 1 -10 -3 -7 -9 3 -5 14 -6 24 -3 13 4 22 -1 29 -14 13 -23 3 -90 -10 -69 -6 9 -9 9 -9 1 0 -6 5 -15 10 -18 8 -5 7 -12 -2 -23 -10 -12 -10 -14 0 -8 6 4 12 2 12 -3 0 -6 -5 -11 -11 -11 -6 0 -9 -7 -5 -15 3 -8 1 -15 -4 -15 -6 0 -10 -5 -10 -11 0 -6 -8 -21 -18 -34 l-18 -22 -1 41 c0 35 1 37 8 16 8 -23 8 -22 4 6 -2 16 -5 37 -7 45 -2 8 2 13 7 12 6 -1 11 12 10 28 0 16 -3 29 -7 29 -5 0 -13 0 -19 0 -8 0 -8 -4 0 -14 9 -11 8 -14 -6 -12 -13 1 -18 -6 -18 -26 0 -38 -12 -44 -17 -8 -3 18 0 34 7 38 7 4 14 17 17 30 4 12 2 20 -3 16 -10 -6 -12 7 -3 30 3 9 11 13 17 9 6 -4 7 -1 2 7 -4 7 -3 15 2 19 14 9 25 61 13 61 -5 0 -10 8 -11 18 0 11 -2 12 -6 4 -3 -7 0 -19 7 -26 7 -9 7 -16 1 -20 -6 -4 -13 10 -17 31 -4 21 -13 44 -21 51 -7 7 -13 21 -12 30 0 14 2 13 8 -3 8 -19 8 -19 19 2 7 12 12 38 12 59 0 41 7 42 14 3z m-1664 -3126 c18 -35 38 -63 44 -63 6 0 19 -7 29 -14 16 -12 16 -15 2 -29 -21 -22 -19 -25 13 -21 15 2 21 1 15 -2 -7 -3 -13 -10 -13 -15 0 -6 5 -7 10 -4 6 3 10 0 10 -8 0 -8 6 -20 14 -26 13 -11 14 -4 9 42 -6 58 5 78 28 50 8 -9 9 -14 2 -10 -7 5 -9 1 -6 -11 6 -23 40 -45 48 -32 3 6 12 10 18 10 8 0 8 -3 -1 -9 -10 -6 -10 -10 3 -21 13 -11 15 -10 9 4 -4 10 -1 16 7 16 12 0 12 2 0 9 -11 7 -11 12 0 32 7 13 12 30 10 38 -1 7 2 10 8 6 6 -3 11 0 11 7 0 7 6 4 12 -7 6 -11 14 -22 17 -25 12 -10 8 -40 -4 -40 -10 0 -12 -10 -8 -37 5 -36 5 -37 -10 -18 -19 23 -22 13 -6 -17 15 -28 3 -35 -23 -12 -14 12 -18 13 -10 3 14 -18 7 -30 -14 -22 -8 3 -14 -1 -14 -8 0 -7 3 -9 7 -6 6 7 32 -21 33 -35 0 -5 -8 -8 -17 -8 -24 -1 -53 -24 -53 -42 0 -10 8 -14 25 -13 14 2 29 -3 34 -12 5 -10 11 -12 15 -5 3 5 -1 13 -10 16 -13 5 -14 9 -4 21 13 16 45 21 36 6 -4 -5 -1 -22 5 -37 8 -24 7 -31 -7 -41 -10 -7 -13 -13 -7 -13 6 0 9 -9 6 -20 -5 -20 -7 -20 -24 -4 -20 18 -27 6 -8 -13 7 -7 7 -13 1 -17 -13 -8 -121 169 -187 309 -31 65 -72 151 -91 190 -20 38 -26 59 -16 46 11 -14 34 -53 52 -88z m30 -490 c8 -16 16 -32 19 -37 2 -5 -2 -6 -9 -1 -10 6 -12 2 -7 -16 4 -13 7 -27 7 -31 0 -15 19 -8 24 10 3 9 4 -2 3 -25 -2 -38 0 -42 16 -37 27 9 17 -18 -12 -32 -25 -13 -16 -25 15 -20 25 4 36 -14 21 -33 -9 -12 -9 -13 1 -7 7 4 12 2 12 -4 0 -6 6 -8 13 -4 6 4 4 -2 -6 -12 -17 -18 -18 -18 -34 6 -10 14 -17 29 -15 33 1 5 -2 6 -6 3 -10 -6 -36 20 -45 47 -4 9 -13 17 -21 17 -8 0 -18 9 -21 20 -3 11 -10 20 -15 20 -4 0 -11 11 -14 25 -4 14 -11 25 -18 25 -6 0 -3 9 7 20 10 11 22 17 27 14 6 -4 5 -10 -3 -16 -11 -8 -11 -9 1 -5 8 2 15 12 15 23 1 22 13 44 24 44 4 0 14 -12 21 -27z m-526 -514 c19 -37 10 -72 -15 -64 -11 4 -19 2 -19 -5 0 -6 5 -8 10 -5 6 3 10 -1 10 -10 0 -9 -4 -13 -10 -10 -5 3 -10 1 -10 -4 0 -6 7 -11 15 -11 8 0 15 -7 15 -16 0 -14 3 -14 15 -4 26 21 16 0 -11 -25 -32 -30 -44 -31 -51 -7 -2 10 -18 23 -34 29 -16 6 -32 20 -35 30 -3 10 -10 27 -16 37 -8 16 -3 26 31 59 39 40 41 41 61 22 11 -10 20 -13 20 -7 0 6 -4 14 -10 17 -5 3 -10 11 -10 17 0 17 28 -10 44 -43z"/>
<path d="M6453 13968 c-6 -7 -23 -44 -39 -83 -31 -77 -46 -228 -21 -224 16 3 86 -29 104 -46 9 -10 10 -16 2 -21 -17 -10 12 -24 37 -18 14 4 23 0 27 -10 4 -9 11 -16 18 -16 6 0 2 15 -10 34 -12 18 -21 41 -21 50 0 22 33 20 55 -4 10 -11 21 -20 26 -20 4 0 -8 15 -27 34 -19 19 -34 41 -34 49 0 8 -9 17 -20 20 -15 4 -20 0 -20 -14 0 -24 -9 -24 -42 4 -32 26 -48 64 -43 103 1 16 -3 33 -12 39 -12 9 -11 18 12 63 14 29 33 52 41 52 8 0 12 5 9 10 -9 14 -31 13 -42 -2z"/>
<path d="M8076 8171 c-4 -6 -2 -11 3 -11 6 0 11 -7 11 -16 0 -8 -4 -12 -10 -9 -6 3 -7 -1 -4 -9 3 -9 1 -16 -5 -16 -6 0 -11 8 -11 18 0 11 -5 7 -15 -12 -11 -21 -12 -32 -5 -41 8 -9 8 -15 0 -20 -5 -3 -10 1 -10 9 0 9 -4 16 -9 16 -14 0 -7 -123 7 -128 7 -2 10 -8 6 -13 -3 -5 -1 -9 5 -9 5 0 11 5 13 11 2 6 10 -12 17 -40 8 -31 18 -51 27 -51 8 0 14 -4 14 -10 0 -5 -4 -10 -10 -10 -5 0 -2 -13 8 -29 16 -29 16 -29 27 -7 6 11 20 20 30 19 23 -2 55 14 55 27 0 5 -7 7 -15 4 -10 -4 -15 0 -15 12 0 16 -2 17 -10 4 -8 -12 -10 -11 -10 8 0 13 -6 22 -15 22 -18 0 -19 -12 -4 -27 8 -8 5 -17 -11 -33 -12 -12 -24 -19 -27 -16 -3 3 2 12 10 21 16 15 17 50 3 73 -9 15 6 16 21 1 8 -8 13 -7 18 2 5 7 4 10 -2 6 -12 -7 -57 32 -48 41 3 4 9 2 13 -3 8 -11 32 -18 32 -9 0 3 -10 15 -22 26 -16 13 -19 21 -11 24 9 4 10 11 3 24 -6 10 -11 38 -12 62 -2 46 -31 107 -42 89z"/>
<path d="M8800 7184 c0 -15 -26 -25 -45 -17 -10 3 -15 0 -13 -8 2 -9 -8 -15 -25 -17 -16 -2 -31 -10 -33 -17 -6 -15 -71 -41 -93 -36 -9 2 -12 -3 -8 -13 4 -10 1 -16 -8 -16 -8 0 -15 -4 -15 -10 0 -5 -7 -10 -15 -10 -8 0 -15 -4 -15 -10 0 -5 -3 -9 -7 -8 -5 1 -21 -2 -36 -7 -20 -5 -27 -12 -23 -24 6 -15 5 -15 -7 0 -12 15 -14 15 -36 -2 -14 -11 -18 -19 -10 -19 11 0 11 -2 -1 -10 -20 -13 -33 -13 -25 0 11 17 -6 11 -70 -25 -74 -41 -95 -62 -75 -75 8 -5 19 -5 26 1 7 6 27 6 53 0 23 -5 39 -5 35 0 -3 5 85 9 207 9 117 0 210 2 208 4 -2 2 -83 5 -179 7 -96 1 -180 4 -187 7 -33 11 16 45 160 110 4 2 4 -3 1 -12 -3 -9 -11 -13 -17 -9 -6 4 -7 1 -3 -6 5 -8 3 -12 -5 -11 -21 3 -59 -11 -59 -21 0 -5 4 -9 10 -9 14 0 84 40 92 54 4 6 8 7 8 2 0 -6 7 -1 16 10 8 10 13 13 9 7 -11 -22 1 -15 107 56 70 47 105 66 110 58 5 -8 8 -5 9 8 l0 20 9 -20 c5 -11 9 -15 9 -8 1 6 10 9 21 6 19 -5 19 -4 5 25 -9 16 -21 35 -28 40 -17 14 -57 11 -57 -4z"/>
<path d="M7996 6776 c-8 -31 -7 -38 4 -31 6 4 8 10 5 15 -10 16 27 20 55 5 33 -17 68 -60 99 -122 24 -48 88 -271 98 -338 6 -49 22 -71 24 -33 0 13 3 17 6 10 2 -6 8 -10 13 -7 24 15 -42 273 -94 365 -53 93 -98 134 -164 148 -37 9 -41 8 -46 -12z"/>
<path d="M5885 7909 c-4 -5 -13 -8 -21 -5 -11 4 -13 -3 -9 -32 2 -20 1 -42 -3 -48 -8 -13 -54 -13 -63 -1 -3 5 -9 0 -11 -11 -4 -13 -1 -19 6 -16 6 2 19 -9 29 -25 19 -33 22 -45 7 -36 -17 11 1 -48 19 -62 24 -18 38 -16 15 3 -19 15 -19 16 1 9 11 -4 29 -8 40 -9 12 0 27 -14 36 -33 9 -18 19 -30 22 -27 8 8 37 -50 37 -73 0 -10 9 -25 20 -33 11 -8 20 -25 20 -38 0 -13 4 -20 10 -17 6 4 10 -6 10 -23 0 -16 3 -32 8 -36 4 -4 8 -12 8 -17 1 -5 2 -10 4 -11 1 -2 3 -12 5 -23 6 -38 14 -64 25 -84 6 -12 10 -28 8 -35 -6 -29 15 -20 34 14 14 26 18 49 15 87 -2 29 0 50 4 48 10 -7 -7 63 -19 78 -8 11 -13 28 -25 112 -5 28 -17 55 -39 87 -14 20 -15 28 -6 31 10 4 10 6 1 6 -7 1 -13 10 -13 20 0 11 -5 21 -11 23 -6 2 -11 16 -11 31 0 15 -4 27 -9 27 -5 0 -9 7 -9 16 0 8 -4 13 -8 10 -5 -3 -16 11 -25 30 -10 19 -22 32 -27 29 -6 -3 -7 1 -4 9 4 10 1 17 -7 18 -8 0 -18 2 -24 2 -5 1 -15 5 -22 9 -6 4 -15 2 -18 -4z"/>
<path d="M6526 7784 c-9 -8 -16 -22 -16 -30 0 -8 -5 -14 -11 -14 -6 0 -20 -10 -30 -22 l-20 -23 11 25 c11 24 10 24 -4 6 -10 -12 -12 -24 -7 -29 10 -10 -33 -57 -51 -57 -5 0 -8 -6 -5 -12 6 -17 -12 -50 -22 -43 -5 2 -8 -3 -7 -13 0 -10 -6 -17 -15 -16 -11 1 -15 -5 -12 -17 3 -11 1 -19 -4 -19 -5 0 -29 -38 -52 -85 -33 -65 -42 -91 -37 -112 4 -16 8 -36 10 -45 4 -28 35 -56 57 -51 22 6 26 23 4 23 -8 0 -15 5 -15 11 0 5 4 8 9 4 5 -3 12 -1 16 5 4 6 11 8 16 5 5 -4 9 -1 9 6 0 7 -11 10 -30 7 -29 -4 -40 5 -20 17 6 3 10 17 10 30 0 13 4 26 9 30 5 3 12 19 16 35 4 17 11 30 16 30 5 0 9 6 9 14 0 8 7 21 15 29 22 23 61 97 75 144 7 23 17 40 21 37 5 -3 6 1 4 8 -3 7 15 41 40 76 42 57 48 83 11 46z"/>
<path d="M10153 7828 c1 -7 -6 -12 -15 -12 -10 1 -18 -4 -18 -11 0 -14 17 -15 38 -2 7 5 12 3 12 -7 0 -9 -4 -16 -10 -16 -18 0 -10 -22 10 -27 11 -3 20 -10 20 -15 0 -5 5 -6 10 -3 6 3 13 -1 16 -10 4 -9 12 -14 20 -11 7 3 18 -2 24 -10 7 -8 16 -14 21 -14 4 0 28 -13 52 -30 25 -16 54 -30 65 -30 12 0 23 -4 27 -10 3 -5 12 -7 20 -3 10 3 13 1 10 -9 -3 -8 4 -23 16 -34 15 -12 20 -14 15 -4 -4 8 -1 7 7 -3 9 -10 19 -18 23 -17 4 0 10 -11 11 -26 3 -21 1 -25 -12 -20 -9 3 -21 6 -26 6 -6 0 -7 5 -4 10 3 6 1 10 -5 10 -6 0 -8 5 -5 10 3 6 2 10 -4 10 -5 0 -12 -6 -14 -12 -3 -8 -6 -6 -6 4 -1 12 -6 15 -18 11 -11 -4 -14 -3 -9 5 5 8 0 12 -13 12 -13 0 -19 -6 -18 -19 1 -11 7 -17 17 -14 10 3 33 -13 57 -37 27 -27 43 -36 46 -28 4 10 8 10 16 -2 6 -8 11 -12 11 -7 0 4 13 1 29 -8 23 -11 31 -12 34 -2 4 7 6 6 6 -4 1 -16 20 -29 42 -29 6 0 7 9 4 20 -6 19 -4 20 22 14 15 -4 38 -14 50 -22 20 -13 23 -12 29 2 3 9 4 25 1 36 -3 10 0 21 7 24 7 3 7 5 -1 5 -7 1 -22 -8 -32 -18 -21 -21 -31 -18 -31 10 0 12 -5 16 -15 13 -8 -4 -15 -2 -15 4 0 6 -10 8 -22 4 -14 -3 -19 -2 -14 6 7 11 -6 17 -27 13 -5 -1 -11 7 -14 18 -3 11 -10 18 -17 15 -6 -2 -16 6 -21 18 -6 12 -28 31 -51 43 -22 12 -39 26 -37 32 2 6 -11 13 -28 17 -35 7 -164 88 -191 120 -15 19 -17 19 -18 4 0 -10 -4 -18 -10 -18 -5 0 -7 7 -4 15 4 8 2 15 -4 15 -5 0 -12 -9 -15 -20 -3 -11 -10 -20 -17 -20 -6 0 -8 5 -5 11 9 14 -3 59 -15 59 -6 0 -9 -6 -7 -12z"/>
</g>
</svg>
